# Blender 4.0.2
# www.blender.org
mtllib roof_67_top_inner.mtl
o 1.010
v 0.582546 0.083616 1.000625
v 0.582546 0.083616 -0.000625
v 0.498993 0.000062 1.000625
v 0.498993 0.000062 -0.000625
v 0.295284 0.370878 -0.000625
v 0.295284 0.370878 1.000625
v 0.211730 0.287325 -0.000625
v 0.211730 0.287325 1.000625
vn -0.0000 -0.0000 -1.0000
vn 0.7071 -0.7071 -0.0000
vn -0.0000 -0.0000 1.0000
vn 0.7071 0.7071 -0.0000
vn -0.7071 -0.7071 -0.0000
vt 0.000000 0.875000
vt 0.328125 0.875000
vt 0.328125 1.000000
vt 0.000000 1.000000
vt 1.000000 0.437500
vt 0.000000 0.437500
vt 0.000000 0.562500
vt 1.000000 0.562500
vt 0.406251 0.000000
vt 0.000000 0.000000
vt 0.406251 1.000000
vt 0.000000 0.812500
vt 0.000000 0.406249
vt 1.000000 0.406249
vt 1.000000 0.812500
s 0
usemtl m_a027d353-13d8-ac28-8245-9429099ab2ca.001
f 4/1/1 7/2/1 5/3/1 2/4/1
f 8/1/3 3/2/3 1/3/3 6/4/3
f 7/12/5 4/13/5 3/14/5 8/15/5
usemtl m_77840452-9876-0a90-d819-a273d8115d63.001
f 3/5/2 4/6/2 2/7/2 1/8/2
f 6/9/4 1/10/4 2/4/4 5/11/4
o 1r.006
v 1.000625 0.083616 0.582546
v 1.000625 0.370878 0.295284
v 1.000625 0.000062 0.498993
v 1.000625 0.287325 0.211730
v -0.000625 0.370878 0.295284
v -0.000625 0.083616 0.582546
v -0.000625 0.287325 0.211730
v -0.000625 0.000062 0.498993
vn 1.0000 -0.0000 -0.0000
vn -0.0000 -0.7071 0.7071
vn -1.0000 -0.0000 -0.0000
vn -0.0000 0.7071 0.7071
vn -0.0000 -0.7071 -0.7071
vt 0.000000 0.875000
vt 0.328125 0.875000
vt 0.328125 1.000000
vt 0.000000 1.000000
vt 1.000000 0.437500
vt 0.000000 0.437500
vt 0.000000 0.562500
vt 1.000000 0.562500
vt 0.000000 0.000000
vt 0.406251 1.000000
vt 0.406251 0.000000
vt 1.000000 0.812500
vt 0.000000 0.812500
vt 0.000000 0.406249
vt 1.000000 0.406249
s 0
usemtl m_a027d353-13d8-ac28-8245-9429099ab2ca.001
f 11/16/6 12/17/6 10/18/6 9/19/6
f 15/16/8 16/17/8 14/18/8 13/19/8
f 15/27/10 12/28/10 11/29/10 16/30/10
usemtl m_77840452-9876-0a90-d819-a273d8115d63.001
f 16/20/7 11/21/7 9/22/7 14/23/7
f 14/24/9 9/19/9 10/25/9 13/26/9
o 2.010
v 0.434772 0.398499 1.000625
v 0.434772 0.398499 -0.000625
v 0.351218 0.314946 1.000625
v 0.351218 0.314946 -0.000625
v 0.147509 0.685762 -0.000625
v 0.147509 0.685762 1.000625
v 0.063956 0.602208 -0.000625
v 0.063956 0.602208 1.000625
vn -0.0000 -0.0000 -1.0000
vn 0.7071 -0.7071 -0.0000
vn -0.0000 -0.0000 1.0000
vn 0.7071 0.7071 -0.0000
vt 0.000000 0.875000
vt 0.328125 0.875000
vt 0.328125 1.000000
vt 0.000000 1.000000
vt 1.000000 0.437500
vt 0.000000 0.437500
vt 0.000000 0.562500
vt 1.000000 0.562500
vt 0.406251 0.000000
vt 0.000000 0.000000
vt 0.406251 1.000000
s 0
usemtl m_a027d353-13d8-ac28-8245-9429099ab2ca.001
f 20/31/11 23/32/11 21/33/11 18/34/11
f 24/31/13 19/32/13 17/33/13 22/34/13
usemtl m_77840452-9876-0a90-d819-a273d8115d63.001
f 19/35/12 20/36/12 18/37/12 17/38/12
f 22/39/14 17/40/14 18/34/14 21/41/14
o 2r.006
v 1.000625 0.398499 0.434772
v 1.000625 0.685762 0.147509
v 1.000625 0.314946 0.351218
v 1.000625 0.602208 0.063955
v -0.000625 0.685762 0.147509
v -0.000625 0.398499 0.434772
v -0.000625 0.602208 0.063955
v -0.000625 0.314946 0.351218
vn 1.0000 -0.0000 -0.0000
vn -0.0000 -0.7071 0.7071
vn -1.0000 -0.0000 -0.0000
vn -0.0000 0.7071 0.7071
vt 0.000000 0.875000
vt 0.328125 0.875000
vt 0.328125 1.000000
vt 0.000000 1.000000
vt 1.000000 0.437500
vt 0.000000 0.437500
vt 0.000000 0.562500
vt 1.000000 0.562500
vt 0.000000 0.000000
vt 0.406251 1.000000
vt 0.406251 0.000000
s 0
usemtl m_a027d353-13d8-ac28-8245-9429099ab2ca.001
f 27/42/15 28/43/15 26/44/15 25/45/15
f 31/42/17 32/43/17 30/44/17 29/45/17
usemtl m_77840452-9876-0a90-d819-a273d8115d63.001
f 32/46/16 27/47/16 25/48/16 30/49/16
f 30/50/18 25/45/18 26/51/18 29/52/18
o 3.010
v 0.286997 0.713383 1.000625
v 0.286997 0.713383 -0.000625
v 0.203444 0.629830 1.000625
v 0.203444 0.629830 -0.000625
v 0.000424 0.999957 -0.000625
v 0.000424 0.999957 1.000625
v -0.083130 0.916403 -0.000625
v -0.083130 0.916403 1.000625
vn -0.0000 -0.0000 -1.0000
vn 0.7071 -0.7071 -0.0000
vn -0.0000 -0.0000 1.0000
vn -0.7071 0.7071 -0.0000
vn 0.7071 0.7071 -0.0000
vn -0.7071 -0.7071 -0.0000
vt 0.000000 0.875000
vt 0.328125 0.875000
vt 0.328125 1.000000
vt 0.000000 1.000000
vt 1.000000 0.437500
vt 0.000000 0.437500
vt 0.000000 0.562500
vt 1.000000 0.562500
vt 1.000000 0.875000
vt 1.000000 1.000000
vt 0.405277 0.000000
vt 0.000000 0.000000
vt 0.405277 1.000000
vt 0.000000 0.594723
vt 1.000000 0.594723
s 0
usemtl m_a027d353-13d8-ac28-8245-9429099ab2ca.001
f 36/53/19 39/54/19 37/55/19 34/56/19
f 40/53/21 35/54/21 33/55/21 38/56/21
f 39/53/22 40/61/22 38/62/22 37/56/22
f 39/56/24 36/66/24 35/67/24 40/62/24
usemtl m_77840452-9876-0a90-d819-a273d8115d63.001
f 35/57/20 36/58/20 34/59/20 33/60/20
f 38/63/23 33/64/23 34/56/23 37/65/23
o 3r.006
v 1.000625 0.713383 0.286997
v 1.000625 0.999957 0.000424
v 1.000625 0.629830 0.203444
v 1.000625 0.916403 -0.083130
v -0.000625 0.999957 0.000424
v -0.000625 0.713383 0.286997
v -0.000625 0.916403 -0.083130
v -0.000625 0.629830 0.203444
vn -0.0000 0.7071 -0.7071
vn 1.0000 -0.0000 -0.0000
vn -0.0000 -0.7071 0.7071
vn -1.0000 -0.0000 -0.0000
vn -0.0000 0.7071 0.7071
vn -0.0000 -0.7071 -0.7071
vt 0.000000 0.875000
vt 1.000000 0.875000
vt 1.000000 1.000000
vt 0.000000 1.000000
vt 0.328125 0.875000
vt 0.328125 1.000000
vt 1.000000 0.437500
vt 0.000000 0.437500
vt 0.000000 0.562500
vt 1.000000 0.562500
vt 0.000000 0.000000
vt 0.405277 1.000000
vt 0.405277 0.000000
vt 0.000000 0.594723
vt 1.000000 0.594723
s 0
usemtl m_a027d353-13d8-ac28-8245-9429099ab2ca.001
f 44/68/25 47/69/25 45/70/25 42/71/25
f 43/68/26 44/72/26 42/73/26 41/71/26
f 47/68/28 48/72/28 46/73/28 45/71/28
f 47/70/30 44/71/30 43/81/30 48/82/30
usemtl m_77840452-9876-0a90-d819-a273d8115d63.001
f 48/74/27 43/75/27 41/76/27 46/77/27
f 46/78/29 41/71/29 42/79/29 45/80/29
o fill_1.010
v 0.499999 0.156250 1.000000
v 0.499999 0.156250 0.500000
v 0.499999 0.000000 1.000000
v 0.499999 0.000000 0.500000
v 0.249999 0.156250 0.500000
v 0.249999 0.156250 1.000000
v 0.249999 0.000000 0.500000
v 0.249999 0.000000 1.000000
vn -0.0000 -0.0000 -1.0000
vn 1.0000 -0.0000 -0.0000
vn -0.0000 -0.0000 1.0000
vn -1.0000 -0.0000 -0.0000
vn -0.0000 1.0000 -0.0000
vn -0.0000 -1.0000 -0.0000
vt 0.500000 0.000000
vt 0.750000 0.000000
vt 0.750000 0.156250
vt 0.500000 0.156250
vt 0.000000 0.843750
vt 1.000000 0.843750
vt 1.000000 1.000000
vt 0.000000 1.000000
vt 0.250000 1.000000
vt 0.500000 1.000000
vt 0.500000 0.843750
vt 0.250000 0.843750
vt 0.000000 0.000000
vt 0.250000 0.000000
vt 0.750000 0.500000
vt 0.500000 0.500000
vt 0.750000 1.000000
s 0
usemtl m_a027d353-13d8-ac28-8245-9429099ab2ca.001
f 52/83/31 55/84/31 53/85/31 50/86/31
f 51/87/32 52/88/32 50/89/32 49/90/32
f 56/91/33 51/92/33 49/93/33 54/94/33
f 55/87/34 56/88/34 54/89/34 53/90/34
f 54/91/35 49/90/35 50/95/35 53/96/35
f 55/97/36 52/98/36 51/92/36 56/99/36
o fill_1.011
v 1.000000 0.156250 0.499999
v 1.000000 0.156250 0.249999
v 1.000000 0.000000 0.499999
v 1.000000 0.000000 0.249999
v 0.250000 0.156250 0.249999
v 0.250000 0.156250 0.499999
v 0.250000 0.000000 0.249999
v 0.250000 0.000000 0.499999
vn -0.0000 -0.0000 -1.0000
vn 1.0000 -0.0000 -0.0000
vn -0.0000 -0.0000 1.0000
vn -1.0000 -0.0000 -0.0000
vn -0.0000 1.0000 -0.0000
vn -0.0000 -1.0000 -0.0000
vt 0.000000 0.843750
vt 1.000000 0.843750
vt 1.000000 1.000000
vt 0.000000 1.000000
vt 0.500000 1.000000
vt 0.750000 1.000000
vt 0.750000 0.843750
vt 0.500000 0.843750
vt 0.250000 0.000000
vt 0.500000 0.000000
vt 0.500000 0.156250
vt 0.250000 0.156250
vt 0.000000 0.000000
vt 0.250000 1.000000
vt 0.750000 0.250000
vt 0.000000 0.250000
vt 0.000000 0.500000
vt 0.750000 0.500000
s 0
usemtl m_a027d353-13d8-ac28-8245-9429099ab2ca.001
f 60/100/37 63/101/37 61/102/37 58/103/37
f 59/104/38 60/105/38 58/106/38 57/107/38
f 64/100/39 59/101/39 57/102/39 62/103/39
f 63/108/40 64/109/40 62/110/40 61/111/40
f 62/103/41 57/112/41 58/108/41 61/113/41
f 63/114/42 60/115/42 59/116/42 64/117/42
o fill_2.009
v 0.343749 0.468750 1.000000
v 0.343749 0.468750 0.250000
v 0.343749 0.156250 1.000000
v 0.343749 0.156250 0.250000
v 0.249999 0.468750 0.250000
v 0.249999 0.468750 1.000000
v 0.249999 0.156250 0.250000
v 0.249999 0.156250 1.000000
vn -0.0000 -0.0000 -1.0000
vn 1.0000 -0.0000 -0.0000
vn -0.0000 -0.0000 1.0000
vn -1.0000 -0.0000 -0.0000
vn -0.0000 1.0000 -0.0000
vn -0.0000 -1.0000 -0.0000
vt 0.656250 0.156250
vt 0.750000 0.156250
vt 0.750000 0.468750
vt 0.656250 0.468750
vt 0.000000 0.687500
vt 1.000000 0.687500
vt 1.000000 1.000000
vt 0.000000 1.000000
vt 0.250000 0.843750
vt 0.343750 0.843750
vt 0.343750 0.531250
vt 0.250000 0.531250
vt 0.093750 1.000000
vt 0.000000 0.000000
vt 0.093750 0.000000
vt 0.250000 1.000000
vt 0.343750 1.000000
vt 0.343750 0.000000
vt 0.250000 0.000000
s 0
usemtl m_a027d353-13d8-ac28-8245-9429099ab2ca.001
f 68/118/43 71/119/43 69/120/43 66/121/43
f 67/122/44 68/123/44 66/124/44 65/125/44
f 72/126/45 67/127/45 65/128/45 70/129/45
f 71/122/46 72/123/46 70/124/46 69/125/46
f 70/130/47 65/125/47 66/131/47 69/132/47
f 71/133/48 68/134/48 67/135/48 72/136/48
o fill_2.010
v 1.000000 0.468750 0.343749
v 1.000000 0.468750 0.249999
v 1.000000 0.156250 0.343749
v 1.000000 0.156250 0.249999
v 0.015625 0.468750 0.249999
v 0.015625 0.468750 0.343749
v 0.015625 0.156250 0.249999
v 0.015625 0.156250 0.343749
vn -0.0000 -0.0000 -1.0000
vn 1.0000 -0.0000 -0.0000
vn -0.0000 -0.0000 1.0000
vn -1.0000 -0.0000 -0.0000
vn -0.0000 1.0000 -0.0000
vn -0.0000 -1.0000 -0.0000
vt 0.000000 0.687500
vt 1.000000 0.687500
vt 1.000000 1.000000
vt 0.000000 1.000000
vt 0.656250 0.531250
vt 0.750000 0.531250
vt 0.750000 0.843750
vt 0.656250 0.843750
vt 0.250000 0.156250
vt 0.343750 0.156250
vt 0.343750 0.468750
vt 0.250000 0.468750
vt 0.000000 0.000000
vt 0.093750 0.000000
vt 0.093750 1.000000
vt 0.250000 0.000000
vt 0.250000 1.000000
vt 0.343750 1.000000
vt 0.343750 0.000000
s 0
usemtl m_a027d353-13d8-ac28-8245-9429099ab2ca.001
f 76/137/49 79/138/49 77/139/49 74/140/49
f 75/141/50 76/142/50 74/143/50 73/144/50
f 80/137/51 75/138/51 73/139/51 78/140/51
f 79/145/52 80/146/52 78/147/52 77/148/52
f 78/140/53 73/149/53 74/150/53 77/151/53
f 79/152/54 76/153/54 75/154/54 80/155/54
o fill_3.011
v 0.249999 0.562500 1.000000
v 0.249999 0.562500 -0.000000
v 0.249999 0.000000 1.000000
v 0.249999 0.000000 0.000000
v 0.000000 0.562500 -0.000000
v 0.000000 0.562500 1.000000
v 0.000000 0.000000 0.000000
v 0.000000 0.000000 1.000000
vn -0.0000 -0.0000 -1.0000
vn 1.0000 -0.0000 -0.0000
vn -0.0000 -0.0000 1.0000
vn -1.0000 -0.0000 -0.0000
vn -0.0000 1.0000 -0.0000
vn -0.0000 -1.0000 -0.0000
vt 0.750001 1.000000
vt 1.000000 1.000000
vt 1.000000 0.437500
vt 0.750001 0.437500
vt 0.000000 0.437500
vt 0.000000 1.000000
vt 0.249999 1.000000
vt 0.249999 0.437500
vt 0.000000 0.000000
vt 0.249999 0.000000
vt 1.000000 0.000000
vt 0.750001 0.000000
s 0
usemtl m_a027d353-13d8-ac28-8245-9429099ab2ca.001
f 84/156/55 87/157/55 85/158/55 82/159/55
f 83/160/56 84/158/56 82/157/56 81/161/56
f 88/161/57 83/162/57 81/163/57 86/160/57
f 87/161/58 88/157/58 86/158/58 85/160/58
f 86/162/59 81/161/59 82/164/59 85/165/59
f 87/166/60 84/167/60 83/156/60 88/157/60
o fill_3.012
v 1.000000 0.562500 0.249999
v 1.000000 0.562500 -0.000000
v 1.000000 0.000000 0.249999
v 1.000000 0.000000 0.000000
v 0.250000 0.562500 -0.000000
v 0.250000 0.562500 0.249999
v 0.250000 0.000000 0.000000
v 0.250000 0.000000 0.249999
vn -0.0000 -0.0000 -1.0000
vn 1.0000 -0.0000 -0.0000
vn -0.0000 -0.0000 1.0000
vn -1.0000 -0.0000 -0.0000
vn -0.0000 1.0000 -0.0000
vn -0.0000 -1.0000 -0.0000
vt 0.000000 1.000000
vt 0.750000 1.000000
vt 0.750000 0.437500
vt 0.000000 0.437500
vt 0.750001 1.000000
vt 1.000000 1.000000
vt 1.000000 0.437500
vt 0.750001 0.437500
vt 0.000000 0.000000
vt 0.249999 0.000000
vt 0.249999 0.562500
vt 0.000000 0.562500
vt 0.249999 1.000000
vt 0.750000 0.000000
vt 0.000000 0.249999
vt 0.750000 0.249999
s 0
usemtl m_a027d353-13d8-ac28-8245-9429099ab2ca.001
f 92/168/61 95/169/61 93/170/61 90/171/61
f 91/172/62 92/173/62 90/174/62 89/175/62
f 96/171/63 91/174/63 89/173/63 94/168/63
f 95/176/64 96/177/64 94/178/64 93/179/64
f 94/168/65 89/176/65 90/177/65 93/180/65
f 95/181/66 92/176/66 91/182/66 96/183/66
o fill_4.013
v 0.171874 0.765625 1.000000
v 0.171874 0.765625 -0.000000
v 0.171874 0.562500 1.000000
v 0.171874 0.562500 -0.000000
v 0.000000 0.765625 -0.000000
v 0.000000 0.765625 1.000000
v 0.000000 0.562500 -0.000000
v 0.000000 0.562500 1.000000
vn -0.0000 -0.0000 -1.0000
vn 1.0000 -0.0000 -0.0000
vn -0.0000 -0.0000 1.0000
vn -1.0000 -0.0000 -0.0000
vn -0.0000 1.0000 -0.0000
vn -0.0000 -1.0000 -0.0000
vt 0.828126 0.437500
vt 1.000000 0.437500
vt 1.000000 0.234375
vt 0.828126 0.234375
vt 0.000000 0.796875
vt 1.000000 0.796875
vt 1.000000 1.000000
vt 0.000000 1.000000
vt 0.000000 0.437500
vt 0.171874 0.437500
vt 0.171874 0.234375
vt 0.000000 0.234375
vt 0.171874 1.000000
vt 0.000000 0.000000
vt 0.171874 0.000000
s 0
usemtl m_a027d353-13d8-ac28-8245-9429099ab2ca.001
f 100/184/67 103/185/67 101/186/67 98/187/67
f 99/188/68 100/189/68 98/190/68 97/191/68
f 104/192/69 99/193/69 97/194/69 102/195/69
f 103/192/70 104/185/70 102/186/70 101/195/70
f 102/196/71 97/191/71 98/197/71 101/198/71
f 103/191/72 100/196/72 99/198/72 104/197/72
o fill_4.014
v 1.000000 0.765625 0.171874
v 1.000000 0.765625 -0.000000
v 1.000000 0.562500 0.171874
v 1.000000 0.562500 -0.000000
v 0.171875 0.765625 -0.000000
v 0.171875 0.765625 0.171874
v 0.171875 0.562500 -0.000000
v 0.171875 0.562500 0.171874
vn -0.0000 -0.0000 -1.0000
vn 1.0000 -0.0000 -0.0000
vn -0.0000 -0.0000 1.0000
vn -1.0000 -0.0000 -0.0000
vn -0.0000 1.0000 -0.0000
vn -0.0000 -1.0000 -0.0000
vt 0.000000 0.437500
vt 0.828125 0.437500
vt 0.828125 0.234375
vt 0.000000 0.234375
vt 0.828126 0.437500
vt 1.000000 0.437500
vt 1.000000 0.234375
vt 0.828126 0.234375
vt 0.000000 0.796875
vt 1.000000 0.796875
vt 1.000000 1.000000
vt 0.000000 1.000000
vt 0.000000 0.562500
vt 0.171874 0.562500
vt 0.171874 0.765625
vt 0.000000 0.765625
vt 0.000000 0.000000
vt 0.171874 0.000000
vt 0.171874 1.000000
s 0
usemtl m_a027d353-13d8-ac28-8245-9429099ab2ca.001
f 108/199/73 111/200/73 109/201/73 106/202/73
f 107/203/74 108/204/74 106/205/74 105/206/74
f 112/207/75 107/208/75 105/209/75 110/210/75
f 111/211/76 112/212/76 110/213/76 109/214/76
f 110/210/77 105/215/77 106/216/77 109/217/77
f 111/215/78 108/210/78 107/217/78 112/216/78
o fill_5.011
v 0.093749 0.890625 1.000000
v 0.093749 0.890625 -0.000000
v 0.093749 0.765625 1.000000
v 0.093749 0.765625 -0.000000
v 0.000000 0.890625 -0.000000
v 0.000000 0.890625 1.000000
v 0.000000 0.765625 -0.000000
v 0.000000 0.765625 1.000000
vn -0.0000 -0.0000 -1.0000
vn 1.0000 -0.0000 -0.0000
vn -0.0000 -0.0000 1.0000
vn -1.0000 -0.0000 -0.0000
vn -0.0000 1.0000 -0.0000
vn -0.0000 -1.0000 -0.0000
vt 0.906251 0.109375
vt 1.000000 0.109375
vt 1.000000 0.234375
vt 0.906251 0.234375
vt 0.000000 0.875000
vt 1.000000 0.875000
vt 1.000000 1.000000
vt 0.000000 1.000000
vt 0.000000 0.234375
vt 0.093749 0.234375
vt 0.093749 0.109375
vt 0.000000 0.109375
vt 0.093749 1.000000
vt 0.000000 0.000000
vt 0.093749 0.000000
s 0
usemtl m_a027d353-13d8-ac28-8245-9429099ab2ca.001
f 116/218/79 119/219/79 117/220/79 114/221/79
f 115/222/80 116/223/80 114/224/80 113/225/80
f 120/226/81 115/227/81 113/228/81 118/229/81
f 119/226/82 120/220/82 118/219/82 117/229/82
f 118/230/83 113/225/83 114/231/83 117/232/83
f 119/225/84 116/230/84 115/232/84 120/231/84
o fill_5.012
v 1.000000 0.890625 0.093749
v 1.000000 0.890625 -0.000000
v 1.000000 0.765625 0.093749
v 1.000000 0.765625 -0.000000
v 0.000000 0.890625 -0.000000
v 0.000000 0.890625 0.093749
v 0.000000 0.765625 -0.000000
v 0.000000 0.765625 0.093749
vn -0.0000 -0.0000 -1.0000
vn 1.0000 -0.0000 -0.0000
vn -0.0000 -0.0000 1.0000
vn -1.0000 -0.0000 -0.0000
vn -0.0000 1.0000 -0.0000
vn -0.0000 -1.0000 -0.0000
vt 0.000000 0.218750
vt 1.000000 0.218750
vt 1.000000 0.093750
vt 0.000000 0.093750
vt 0.906251 0.218750
vt 0.906251 0.093750
vt 0.000000 0.875000
vt 1.000000 0.875000
vt 1.000000 1.000000
vt 0.000000 1.000000
vt 0.000000 0.765625
vt 0.093749 0.765625
vt 0.093749 0.890625
vt 0.000000 0.890625
vt 0.000000 0.000000
vt 0.093749 0.000000
vt 0.093749 1.000000
s 0
usemtl m_a027d353-13d8-ac28-8245-9429099ab2ca.001
f 124/233/85 127/234/85 125/235/85 122/236/85
f 123/237/86 124/234/86 122/235/86 121/238/86
f 128/239/87 123/240/87 121/241/87 126/242/87
f 127/243/88 128/244/88 126/245/88 125/246/88
f 126/242/89 121/247/89 122/248/89 125/249/89
f 127/247/90 124/242/90 123/249/90 128/248/90
