# Blender 4.0.2
# www.blender.org
mtllib roof_67_outer.mtl
o 1.003
v 1.082493 0.083616 0.906875
v 1.082493 0.083616 -0.000625
v 0.998939 0.000062 0.906875
v 0.998939 0.000062 -0.000625
v 0.795230 0.370878 -0.000625
v 0.795230 0.370878 0.906875
v 0.711677 0.287325 -0.000625
vn -0.0000 -0.0000 -1.0000
vn 0.7071 -0.7071 -0.0000
vn 0.7071 0.7071 -0.0000
vt 0.000000 0.875000
vt 0.406251 0.875000
vt 0.406251 1.000000
vt 0.000000 1.000000
vt 0.000000 0.437500
vt 0.907500 0.437500
vt 0.907500 0.562500
vt 0.000000 0.562500
vt 0.406251 0.907500
vt 0.000000 0.907500
vt 0.000000 0.000000
vt 0.406251 0.000000
s 0
usemtl m_1305441f-e365-d742-5072-44d375434629.001
f 4/1/1 7/2/1 5/3/1 2/4/1
f 3/5/2 4/6/2 2/7/2 1/8/2
f 6/9/3 1/10/3 2/11/3 5/12/3
o 1r.001
v 0.906875 0.083616 1.082493
v 0.906875 0.370878 0.795230
v 0.906875 0.000062 0.998939
v -0.000625 0.370878 0.795230
v -0.000625 0.083616 1.082493
v -0.000625 0.287325 0.711677
v -0.000625 0.000062 0.998939
vn -0.0000 -0.7071 0.7071
vn -1.0000 -0.0000 -0.0000
vn -0.0000 0.7071 0.7071
vt 0.000000 0.437500
vt 0.907500 0.437500
vt 0.907500 0.562500
vt 0.000000 0.562500
vt 0.000000 0.875000
vt 0.406251 0.875000
vt 0.406251 1.000000
vt 0.000000 1.000000
vt 0.000000 0.092500
vt 0.406251 0.092500
s 0
usemtl m_1305441f-e365-d742-5072-44d375434629.001
f 14/13/4 10/14/4 8/15/4 12/16/4
f 13/17/5 14/18/5 12/19/5 11/20/5
f 12/20/6 8/21/6 9/22/6 11/19/6
o 2.003
v 0.934718 0.398499 0.766250
v 0.934718 0.398499 -0.000625
v 0.851165 0.314946 0.766250
v 0.851165 0.314946 -0.000625
v 0.647456 0.685762 -0.000625
v 0.647456 0.685762 0.766250
v 0.563902 0.602208 -0.000625
vn -0.0000 -0.0000 -1.0000
vn 0.7071 -0.7071 -0.0000
vn 0.7071 0.7071 -0.0000
vt 0.000000 0.875000
vt 0.406251 0.875000
vt 0.406251 1.000000
vt 0.000000 1.000000
vt 0.000000 0.437500
vt 0.766875 0.437500
vt 0.766875 0.562500
vt 0.000000 0.562500
vt 0.406251 0.766875
vt 0.000000 0.766875
vt 0.000000 0.000000
vt 0.406251 0.000000
s 0
usemtl m_1305441f-e365-d742-5072-44d375434629.001
f 18/23/7 21/24/7 19/25/7 16/26/7
f 17/27/8 18/28/8 16/29/8 15/30/8
f 20/31/9 15/32/9 16/33/9 19/34/9
o 2r.001
v 0.766250 0.398499 0.934718
v 0.766250 0.685762 0.647456
v 0.766250 0.314946 0.851165
v -0.000625 0.685762 0.647456
v -0.000625 0.398499 0.934718
v -0.000625 0.602208 0.563902
v -0.000625 0.314946 0.851165
vn -0.0000 -0.7071 0.7071
vn -1.0000 -0.0000 -0.0000
vn -0.0000 0.7071 0.7071
vt 0.000000 0.437500
vt 0.766875 0.437500
vt 0.766875 0.562500
vt 0.000000 0.562500
vt 0.000000 0.875000
vt 0.406251 0.875000
vt 0.406251 1.000000
vt 0.000000 1.000000
vt 0.000000 0.233125
vt 0.406251 0.233125
s 0
usemtl m_1305441f-e365-d742-5072-44d375434629.001
f 28/35/10 24/36/10 22/37/10 26/38/10
f 27/39/11 28/40/11 26/41/11 25/42/11
f 26/42/12 22/43/12 23/44/12 25/41/12
o 3.003
v 0.786944 0.713383 0.610000
v 0.786944 0.713383 -0.000625
v 0.703391 0.629829 0.610000
v 0.703391 0.629829 -0.000625
v 0.500370 0.999957 -0.000625
v 0.500370 0.999957 0.610000
v 0.416817 0.916403 -0.000625
vn -0.0000 -0.0000 -1.0000
vn 0.7071 -0.7071 -0.0000
vn 0.7071 0.7071 -0.0000
vt 0.000000 0.875000
vt 0.405277 0.875000
vt 0.405277 1.000000
vt 0.000000 1.000000
vt 0.000000 0.437500
vt 0.610625 0.437500
vt 0.610625 0.562500
vt 0.000000 0.562500
vt 0.405277 0.610625
vt 0.000000 0.610625
vt 0.000000 0.000000
vt 0.405277 0.000000
s 0
usemtl m_1305441f-e365-d742-5072-44d375434629.001
f 32/45/13 35/46/13 33/47/13 30/48/13
f 31/49/14 32/50/14 30/51/14 29/52/14
f 34/53/15 29/54/15 30/55/15 33/56/15
o 3r.001
v 0.610000 0.713383 0.786944
v 0.610000 0.999957 0.500370
v 0.610000 0.629829 0.703391
v -0.000625 0.999957 0.500370
v -0.000625 0.713383 0.786944
v -0.000625 0.916403 0.416817
v -0.000625 0.629829 0.703391
vn -0.0000 -0.7071 0.7071
vn -1.0000 -0.0000 -0.0000
vn -0.0000 0.7071 0.7071
vt 0.000000 0.437500
vt 0.610625 0.437500
vt 0.610625 0.562500
vt 0.000000 0.562500
vt 0.000000 0.875000
vt 0.405277 0.875000
vt 0.405277 1.000000
vt 0.000000 1.000000
vt 0.000000 0.389375
vt 0.405277 0.389375
s 0
usemtl m_1305441f-e365-d742-5072-44d375434629.001
f 42/57/16 38/58/16 36/59/16 40/60/16
f 41/61/17 42/62/17 40/63/17 39/64/17
f 40/64/18 36/65/18 37/66/18 39/63/18
o cap_1
v 1.132667 0.333331 0.955891
v 0.588388 0.333331 0.411612
v 1.132667 0.000977 0.955891
v 0.588388 0.000977 0.411612
v 0.411612 0.333331 0.588388
v 0.955891 0.333331 1.132667
v 0.411612 0.000977 0.588388
v 0.955891 0.000977 1.132667
vn -0.7071 -0.0000 -0.7071
vn 0.7071 -0.0000 -0.7071
vn 0.7071 -0.0000 0.7071
vn -0.7071 -0.0000 0.7071
vn -0.0000 1.0000 -0.0000
vn -0.0000 -1.0000 -0.0000
vt 0.000000 0.667645
vt 0.250000 0.667645
vt 0.250000 1.000000
vt 0.000000 1.000000
vt 0.769727 0.667645
vt 0.769727 1.000000
vt 0.217578 0.667645
vt 0.987305 0.667645
vt 0.987305 1.000000
vt 0.217578 1.000000
vt 0.000000 0.230273
vt 0.250000 0.230273
vt 0.769727 0.000000
vt 0.769727 0.250000
vt 0.000000 0.250000
vt 0.000000 0.000000
s 0
usemtl m_1305441f-e365-d742-5072-44d375434629.001
f 46/67/19 49/68/19 47/69/19 44/70/19
f 45/67/20 46/71/20 44/72/20 43/70/20
f 50/67/21 45/68/21 43/69/21 48/70/21
f 49/73/22 50/74/22 48/75/22 47/76/22
f 48/69/23 43/70/23 44/77/23 47/78/23
f 49/79/24 46/80/24 45/81/24 50/82/24
o cap_2
v 0.964867 0.666339 0.788091
v 0.588388 0.666339 0.411612
v 0.964867 0.333008 0.788091
v 0.588388 0.333008 0.411612
v 0.411612 0.666339 0.588388
v 0.788091 0.666339 0.964867
v 0.411612 0.333008 0.588388
v 0.788091 0.333008 0.964867
vn -0.7071 -0.0000 -0.7071
vn 0.7071 -0.0000 -0.7071
vn 0.7071 -0.0000 0.7071
vn -0.7071 -0.0000 0.7071
vn -0.0000 1.0000 -0.0000
vn -0.0000 -1.0000 -0.0000
vt 0.000000 0.666669
vt 0.250000 0.666669
vt 0.250000 1.000000
vt 0.000000 1.000000
vt 0.532422 0.666669
vt 0.532422 1.000000
vt 0.467578 0.666669
vt 1.000000 0.666669
vt 1.000000 1.000000
vt 0.467578 1.000000
vt 0.000000 0.467578
vt 0.250000 0.467578
vt 0.826172 0.250000
vt 0.826172 0.500000
vt 0.293750 0.500000
vt 0.293750 0.250000
s 0
usemtl m_1305441f-e365-d742-5072-44d375434629.001
f 54/83/25 57/84/25 55/85/25 52/86/25
f 53/83/26 54/87/26 52/88/26 51/86/26
f 58/83/27 53/84/27 51/85/27 56/86/27
f 57/89/28 58/90/28 56/91/28 55/92/28
f 56/85/29 51/86/29 52/93/29 55/94/29
f 57/95/30 54/96/30 53/97/30 58/98/30
o cap_3
v 0.803973 1.001300 0.627196
v 0.501381 1.001300 0.324604
v 0.803973 0.666993 0.627196
v 0.501381 0.666992 0.324604
v 0.324604 1.001300 0.501381
v 0.627197 1.001300 0.803973
v 0.324604 0.666993 0.501381
v 0.627197 0.666993 0.803973
vn -0.7071 -0.0000 -0.7071
vn 0.7071 -0.0000 -0.7071
vn 0.7071 -0.0000 0.7071
vn -0.7071 -0.0000 0.7071
vn -0.0000 1.0000 -0.0000
vn -0.0000 -1.0000 -0.0000
vt 0.000000 0.665692
vt 0.250000 0.665692
vt 0.250000 1.000000
vt 0.000000 1.000000
vt 0.427930 0.665692
vt 0.427930 1.000000
vt 0.572070 0.665692
vt 1.000000 0.665692
vt 1.000000 1.000000
vt 0.572070 1.000000
vt 0.000000 0.572070
vt 0.250000 0.572070
vt 0.721680 0.250000
vt 0.721680 0.500000
vt 0.293750 0.500000
vt 0.293750 0.250000
s 0
usemtl m_1305441f-e365-d742-5072-44d375434629.001
f 62/99/31 65/100/31 63/101/31 60/102/31
f 61/99/32 62/103/32 60/104/32 59/102/32
f 66/99/33 61/100/33 59/101/33 64/102/33
f 65/105/34 66/106/34 64/107/34 63/108/34
f 64/101/35 59/102/35 60/109/35 63/110/35
f 65/111/36 62/112/36 61/113/36 66/114/36
o cube
v 1.000000 0.156250 0.843750
v 1.000000 0.156250 -0.000000
v 1.000000 0.000000 0.843750
v 1.000000 0.000000 0.000000
v 0.843750 0.156250 -0.000000
v 0.843750 0.156250 0.843750
v 0.843750 0.000000 0.000000
v 0.843750 0.000000 0.843750
vn -0.0000 -0.0000 -1.0000
vn 1.0000 -0.0000 -0.0000
vn -0.0000 -0.0000 1.0000
vn -1.0000 -0.0000 -0.0000
vn -0.0000 1.0000 -0.0000
vn -0.0000 -1.0000 -0.0000
vt 0.000000 0.000000
vt 0.156250 0.000000
vt 0.156250 0.156250
vt 0.000000 0.156250
vt 0.000000 0.843750
vt 0.843750 0.843750
vt 0.843750 1.000000
vt 0.000000 1.000000
vt 0.156250 0.843750
vt 0.156250 1.000000
vt 0.843750 0.000000
vt 1.000000 0.000000
vt 1.000000 0.843750
s 0
usemtl m_1305441f-e365-d742-5072-44d375434629.001
f 70/115/37 73/116/37 71/117/37 68/118/37
f 69/119/38 70/120/38 68/121/38 67/122/38
f 74/119/39 69/123/39 67/124/39 72/122/39
f 73/119/40 74/120/40 72/121/40 71/122/40
f 72/118/41 67/117/41 68/124/41 71/122/41
f 73/125/42 70/126/42 69/127/42 74/120/42
o fill_1.003
v 1.000000 0.156250 0.999999
v 1.000000 0.156250 0.843749
v 1.000000 0.000000 0.999999
v 1.000000 0.000000 0.843749
v 0.000000 0.156250 0.843749
v 0.000000 0.156250 0.999999
v 0.000000 0.000000 0.843749
v 0.000000 0.000000 0.999999
vn -0.0000 -0.0000 -1.0000
vn 1.0000 -0.0000 -0.0000
vn -0.0000 -0.0000 1.0000
vn -1.0000 -0.0000 -0.0000
vn -0.0000 1.0000 -0.0000
vn -0.0000 -1.0000 -0.0000
vt 0.000000 0.843750
vt 1.000000 0.843750
vt 1.000000 1.000000
vt 0.000000 1.000000
vt 0.500000 0.000000
vt 0.656250 0.000000
vt 0.656250 0.156250
vt 0.500000 0.156250
vt 0.250000 0.000000
vt 0.406250 0.000000
vt 0.406250 0.156250
vt 0.250000 0.156250
vt 0.000000 0.000000
vt 0.156250 0.000000
vt 0.156250 1.000000
s 0
usemtl m_1305441f-e365-d742-5072-44d375434629.001
f 78/128/43 81/129/43 79/130/43 76/131/43
f 77/132/44 78/133/44 76/134/44 75/135/44
f 82/128/45 77/129/45 75/130/45 80/131/45
f 81/136/46 82/137/46 80/138/46 79/139/46
f 80/131/47 75/140/47 76/141/47 79/142/47
f 81/128/48 78/129/48 77/130/48 82/131/48
o fill_3.003
v 0.843750 0.437500 0.843749
v 0.843750 0.437500 -0.000000
v 0.843750 0.000000 0.843749
v 0.843750 0.000000 0.000000
v 0.000000 0.437500 -0.000000
v 0.000000 0.437500 0.843749
v 0.000000 0.000000 0.000000
v 0.000000 0.000000 0.843749
vn -0.0000 -0.0000 -1.0000
vn 1.0000 -0.0000 -0.0000
vn -0.0000 -0.0000 1.0000
vn -1.0000 -0.0000 -0.0000
vn -0.0000 1.0000 -0.0000
vn -0.0000 -1.0000 -0.0000
vt 0.156250 0.000000
vt 1.000000 0.000000
vt 1.000000 0.437500
vt 0.156250 0.437500
vt 0.156251 0.125000
vt 1.000000 0.125000
vt 1.000000 0.562500
vt 0.156251 0.562500
vt 0.000000 0.562500
vt 0.843750 0.562500
vt 0.843750 1.000000
vt 0.000000 1.000000
vt 0.000000 0.000000
vt 0.843749 0.000000
vt 0.843749 0.437500
vt 0.000000 0.437500
vt 0.000000 0.156250
vt 0.843749 0.156250
vt 0.843749 1.000000
vt 0.843750 0.000000
vt 0.843750 0.843749
vt 0.000000 0.843749
s 0
usemtl m_1305441f-e365-d742-5072-44d375434629.001
f 86/143/49 89/144/49 87/145/49 84/146/49
f 85/147/50 86/148/50 84/149/50 83/150/50
f 90/151/51 85/152/51 83/153/51 88/154/51
f 89/155/52 90/156/52 88/157/52 87/158/52
f 88/154/53 83/159/53 84/160/53 87/161/53
f 89/155/54 86/162/54 85/163/54 90/164/54
o fill_4.003
v 0.656250 0.765625 0.671874
v 0.656250 0.765625 -0.000000
v 0.656250 0.562500 0.671874
v 0.656250 0.562500 -0.000000
v 0.000000 0.765625 -0.000000
v 0.000000 0.765625 0.671874
v 0.000000 0.562500 -0.000000
v 0.000000 0.562500 0.671874
vn -0.0000 -0.0000 -1.0000
vn 1.0000 -0.0000 -0.0000
vn -0.0000 -0.0000 1.0000
vn -1.0000 -0.0000 -0.0000
vn -0.0000 1.0000 -0.0000
vn -0.0000 -1.0000 -0.0000
vt 0.343750 0.562500
vt 1.000000 0.562500
vt 1.000000 0.765625
vt 0.343750 0.765625
vt 0.328126 0.562500
vt 0.328126 0.765625
vt 0.000000 0.796875
vt 0.656250 0.796875
vt 0.656250 1.000000
vt 0.000000 1.000000
vt 0.000000 0.562500
vt 0.671874 0.562500
vt 0.671874 0.765625
vt 0.000000 0.765625
vt 0.000000 0.343750
vt 0.671874 0.343750
vt 0.671874 1.000000
s 0
usemtl m_1305441f-e365-d742-5072-44d375434629.001
f 94/165/55 97/166/55 95/167/55 92/168/55
f 93/169/56 94/166/56 92/167/56 91/170/56
f 98/171/57 93/172/57 91/173/57 96/174/57
f 97/175/58 98/176/58 96/177/58 95/178/58
f 96/174/59 91/179/59 92/180/59 95/181/59
f 97/179/60 94/174/60 93/181/60 98/180/60
o fill_4.004
v 0.750000 0.562500 0.749999
v 0.750000 0.562500 -0.000000
v 0.750000 0.437500 0.749999
v 0.750000 0.437500 -0.000000
v 0.000000 0.562500 -0.000000
v 0.000000 0.562500 0.749999
v 0.000000 0.437500 -0.000000
v 0.000000 0.437500 0.749999
vn -0.0000 -0.0000 -1.0000
vn 1.0000 -0.0000 -0.0000
vn -0.0000 -0.0000 1.0000
vn -1.0000 -0.0000 -0.0000
vn -0.0000 1.0000 -0.0000
vn -0.0000 -1.0000 -0.0000
vt 0.250000 0.437500
vt 1.000000 0.437500
vt 1.000000 0.562500
vt 0.250000 0.562500
vt 0.250001 0.640625
vt 1.000000 0.640625
vt 1.000000 0.765625
vt 0.250001 0.765625
vt 0.000000 0.875000
vt 0.750000 0.875000
vt 0.750000 1.000000
vt 0.000000 1.000000
vt 0.000000 0.437500
vt 0.749999 0.437500
vt 0.749999 0.562500
vt 0.000000 0.562500
vt 0.000000 0.250000
vt 0.749999 0.250000
vt 0.749999 1.000000
s 0
usemtl m_1305441f-e365-d742-5072-44d375434629.001
f 102/182/61 105/183/61 103/184/61 100/185/61
f 101/186/62 102/187/62 100/188/62 99/189/62
f 106/190/63 101/191/63 99/192/63 104/193/63
f 105/194/64 106/195/64 104/196/64 103/197/64
f 104/193/65 99/198/65 100/199/65 103/200/65
f 105/198/66 102/193/66 101/200/66 106/199/66
o fill_5.003
v 0.593750 0.890625 0.593749
v 0.593750 0.890625 -0.000000
v 0.593750 0.765625 0.593749
v 0.593750 0.765625 -0.000000
v 0.000000 0.890625 -0.000000
v 0.000000 0.890625 0.593749
v 0.000000 0.765625 -0.000000
v 0.000000 0.765625 0.593749
vn -0.0000 -0.0000 -1.0000
vn 1.0000 -0.0000 -0.0000
vn -0.0000 -0.0000 1.0000
vn -1.0000 -0.0000 -0.0000
vn -0.0000 1.0000 -0.0000
vn -0.0000 -1.0000 -0.0000
vt 0.406250 0.765625
vt 1.000000 0.765625
vt 1.000000 0.890625
vt 0.406250 0.890625
vt 0.406251 0.765625
vt 0.406251 0.890625
vt 0.000000 0.875000
vt 0.593750 0.875000
vt 0.593750 1.000000
vt 0.000000 1.000000
vt 0.000000 0.765625
vt 0.593749 0.765625
vt 0.593749 0.890625
vt 0.000000 0.890625
vt 0.000000 0.406250
vt 0.593749 0.406250
vt 0.593749 1.000000
s 0
usemtl m_1305441f-e365-d742-5072-44d375434629.001
f 110/201/67 113/202/67 111/203/67 108/204/67
f 109/205/68 110/202/68 108/203/68 107/206/68
f 114/207/69 109/208/69 107/209/69 112/210/69
f 113/211/70 114/212/70 112/213/70 111/214/70
f 112/210/71 107/215/71 108/216/71 111/217/71
f 113/215/72 110/210/72 109/217/72 114/216/72
o fill_6.002
v 0.500000 1.000000 0.499999
v 0.500000 1.000000 -0.000000
v 0.500000 0.890625 0.499999
v 0.500000 0.890625 -0.000000
v 0.000000 1.000000 -0.000000
v 0.000000 1.000000 0.499999
v 0.000000 0.890625 -0.000000
v 0.000000 0.890625 0.499999
vn -0.0000 -0.0000 -1.0000
vn 1.0000 -0.0000 -0.0000
vn -0.0000 -0.0000 1.0000
vn -1.0000 -0.0000 -0.0000
vn -0.0000 1.0000 -0.0000
vn -0.0000 -1.0000 -0.0000
vt 0.500000 0.890625
vt 1.000000 0.890625
vt 1.000000 1.000000
vt 0.500000 1.000000
vt 0.500001 0.890625
vt 0.500001 1.000000
vt 0.000000 0.890625
vt 0.000000 1.000000
vt 0.499999 0.890625
vt 0.499999 1.000000
vt 0.000000 0.500000
vt 0.499999 0.500000
s 0
usemtl m_1305441f-e365-d742-5072-44d375434629.001
f 118/218/73 121/219/73 119/220/73 116/221/73
f 117/222/74 118/219/74 116/220/74 115/223/74
f 122/224/75 117/218/75 115/221/75 120/225/75
f 121/224/76 122/226/76 120/227/76 119/225/76
f 120/225/77 115/228/77 116/229/77 119/227/77
f 121/228/78 118/225/78 117/227/78 122/229/78
