# Blender 4.0.2
# www.blender.org
mtllib roof_67_top_outer.mtl
o 1.011
v 0.582546 0.083616 0.406875
v 0.582546 0.083616 -0.000625
v 0.498993 0.000062 0.406875
v 0.498993 0.000062 -0.000625
v 0.295284 0.370878 -0.000625
v 0.295284 0.370878 0.406875
v 0.211730 0.287325 -0.000625
vn -0.0000 -0.0000 -1.0000
vn 0.7071 -0.7071 -0.0000
vn 0.7071 0.7071 -0.0000
vt 0.000000 0.875000
vt 0.406251 0.875000
vt 0.406251 1.000000
vt 0.000000 1.000000
vt 0.407500 0.437500
vt 0.000000 0.437500
vt 0.000000 0.562500
vt 0.407500 0.562500
vt 0.406251 0.592500
vt 0.000000 0.592500
s 0
usemtl m_feffc980-587f-3950-8a66-de9cc4e92536.001
f 4/1/1 7/2/1 5/3/1 2/4/1
usemtl m_784fe880-58fc-042e-8502-401ed0182bcd.001
f 3/5/2 4/6/2 2/7/2 1/8/2
f 6/9/3 1/10/3 2/4/3 5/3/3
o 1r.007
v 0.406875 0.083616 0.582546
v 0.406875 0.370878 0.295284
v 0.406875 0.000062 0.498993
v -0.000625 0.370878 0.295284
v -0.000625 0.083616 0.582546
v -0.000625 0.287325 0.211730
v -0.000625 0.000062 0.498993
vn -0.0000 -0.7071 0.7071
vn -1.0000 -0.0000 -0.0000
vn -0.0000 0.7071 0.7071
vt 1.000000 0.437500
vt 0.592500 0.437500
vt 0.592500 0.562500
vt 1.000000 0.562500
vt 0.000000 0.875000
vt 0.406251 0.875000
vt 0.406251 1.000000
vt 0.000000 1.000000
vt 0.000000 0.000000
vt 0.000000 0.407500
vt 0.406251 0.407500
vt 0.406251 0.000000
s 0
usemtl m_784fe880-58fc-042e-8502-401ed0182bcd.001
f 14/11/4 10/12/4 8/13/4 12/14/4
f 12/19/6 8/20/6 9/21/6 11/22/6
usemtl m_feffc980-587f-3950-8a66-de9cc4e92536.001
f 13/15/5 14/16/5 12/17/5 11/18/5
o 2.011
v 0.434772 0.398499 0.258437
v 0.434772 0.398499 -0.000625
v 0.351218 0.314946 0.258437
v 0.351218 0.314946 -0.000625
v 0.147509 0.685762 -0.000625
v 0.147509 0.685762 0.258437
v 0.063956 0.602208 -0.000625
vn -0.0000 -0.0000 -1.0000
vn 0.7071 -0.7071 -0.0000
vn 0.7071 0.7071 -0.0000
vt 0.000000 0.875000
vt 0.406251 0.875000
vt 0.406251 1.000000
vt 0.000000 1.000000
vt 0.259062 0.437500
vt 0.000000 0.437500
vt 0.000000 0.562500
vt 0.259062 0.562500
vt 0.406251 0.740937
vt 0.000000 0.740937
s 0
usemtl m_feffc980-587f-3950-8a66-de9cc4e92536.001
f 18/23/7 21/24/7 19/25/7 16/26/7
usemtl m_784fe880-58fc-042e-8502-401ed0182bcd.001
f 17/27/8 18/28/8 16/29/8 15/30/8
f 20/31/9 15/32/9 16/26/9 19/25/9
o 2r.007
v 0.258438 0.398499 0.434772
v 0.258438 0.685762 0.147509
v 0.258438 0.314946 0.351218
v -0.000625 0.685762 0.147509
v -0.000625 0.398499 0.434772
v -0.000625 0.602208 0.063955
v -0.000625 0.314946 0.351218
vn -0.0000 -0.7071 0.7071
vn -1.0000 -0.0000 -0.0000
vn -0.0000 0.7071 0.7071
vt 1.000000 0.437500
vt 0.740937 0.437500
vt 0.740937 0.562500
vt 1.000000 0.562500
vt 0.000000 0.875000
vt 0.406251 0.875000
vt 0.406251 1.000000
vt 0.000000 1.000000
vt 0.000000 0.000000
vt 0.000000 0.259062
vt 0.406251 0.259062
vt 0.406251 0.000000
s 0
usemtl m_784fe880-58fc-042e-8502-401ed0182bcd.001
f 28/33/10 24/34/10 22/35/10 26/36/10
f 26/41/12 22/42/12 23/43/12 25/44/12
usemtl m_feffc980-587f-3950-8a66-de9cc4e92536.001
f 27/37/11 28/38/11 26/39/11 25/40/11
o 3.011
v 0.286997 0.713383 0.125625
v 0.286997 0.713383 -0.000625
v 0.203444 0.629830 0.125625
v 0.203444 0.629830 -0.000625
v 0.088812 0.911568 -0.000625
v 0.088812 0.911568 0.125625
v 0.005259 0.828015 -0.000625
v 0.005259 0.828015 0.125625
vn -0.0000 -0.0000 -1.0000
vn 0.7071 -0.7071 -0.0000
vn -0.0000 -0.0000 1.0000
vn -0.7071 0.7071 -0.0000
vn 0.7071 0.7071 -0.0000
vn -0.7071 -0.7071 -0.0000
vt 0.000000 0.875000
vt 0.280276 0.875000
vt 0.280276 1.000000
vt 0.000000 1.000000
vt 0.126250 0.437500
vt 0.000000 0.437500
vt 0.000000 0.562500
vt 0.126250 0.562500
vt 0.000000 0.881837
vt 0.280276 0.881837
vt 0.126250 0.881837
vt 0.126250 1.000000
vt 0.280276 0.873750
vt 0.000000 0.873750
vt 0.000000 0.719724
vt 0.126250 0.719724
s 0
usemtl m_feffc980-587f-3950-8a66-de9cc4e92536.001
f 32/45/13 35/46/13 33/47/13 30/48/13
f 36/53/15 31/54/15 29/47/15 34/48/15
f 35/53/16 36/55/16 34/56/16 33/48/16
f 35/48/18 32/59/18 31/60/18 36/56/18
usemtl m_784fe880-58fc-042e-8502-401ed0182bcd.001
f 31/49/14 32/50/14 30/51/14 29/52/14
f 34/57/17 29/58/17 30/48/17 33/47/17
o 3r.007
v 0.125625 0.713383 0.286997
v 0.125625 0.911568 0.088812
v 0.125625 0.629830 0.203444
v 0.125625 0.828015 0.005259
v -0.000625 0.911568 0.088812
v -0.000625 0.713383 0.286997
v -0.000625 0.828015 0.005259
v -0.000625 0.629830 0.203444
vn -0.0000 0.7071 -0.7071
vn 1.0000 -0.0000 -0.0000
vn -0.0000 -0.7071 0.7071
vn -1.0000 -0.0000 -0.0000
vn -0.0000 0.7071 0.7071
vn -0.0000 -0.7071 -0.7071
vt 0.000000 0.881837
vt 0.126250 0.881837
vt 0.126250 1.000000
vt 0.000000 1.000000
vt 0.280276 0.881837
vt 0.280276 1.000000
vt 1.000000 0.437500
vt 0.873750 0.437500
vt 0.873750 0.562500
vt 1.000000 0.562500
vt 0.000000 0.875000
vt 0.280276 0.875000
vt 0.000000 0.000000
vt 0.000000 0.126250
vt 0.280276 0.126250
vt 0.280276 0.000000
vt 0.000000 0.719724
vt 0.126250 0.719724
s 0
usemtl m_feffc980-587f-3950-8a66-de9cc4e92536.001
f 40/61/19 43/62/19 41/63/19 38/64/19
f 39/61/20 40/65/20 38/66/20 37/64/20
f 43/71/22 44/72/22 42/66/22 41/64/22
f 43/63/24 40/64/24 39/77/24 44/78/24
usemtl m_784fe880-58fc-042e-8502-401ed0182bcd.001
f 44/67/21 39/68/21 37/69/21 42/70/21
f 42/73/23 37/74/23 38/75/23 41/76/23
o cap_1.003
v 0.632721 0.333331 0.455944
v 0.088442 0.333331 -0.088335
v 0.632721 0.000977 0.455944
v 0.088442 0.000977 -0.088335
v -0.088335 0.333331 0.088442
v 0.455944 0.333331 0.632721
v -0.088335 0.000977 0.088442
v 0.455944 0.000977 0.632721
vn -0.7071 -0.0000 -0.7071
vn 0.7071 -0.0000 -0.7071
vn 0.7071 -0.0000 0.7071
vn -0.7071 -0.0000 0.7071
vn -0.0000 1.0000 -0.0000
vn -0.0000 -1.0000 -0.0000
vt 0.000000 0.667645
vt 0.250000 0.667645
vt 0.250000 1.000000
vt 0.000000 1.000000
vt 0.769727 0.667645
vt 0.769727 1.000000
vt 0.217578 0.667645
vt 0.987305 0.667645
vt 0.987305 1.000000
vt 0.217578 1.000000
vt 0.000000 0.230273
vt 0.250000 0.230273
vt 0.769727 0.000000
vt 0.769727 0.250000
vt 0.000000 0.250000
vt 0.000000 0.000000
s 0
usemtl m_784fe880-58fc-042e-8502-401ed0182bcd.001
f 48/79/25 51/80/25 49/81/25 46/82/25
f 47/79/26 48/83/26 46/84/26 45/82/26
f 52/79/27 47/80/27 45/81/27 50/82/27
f 51/85/28 52/86/28 50/87/28 49/88/28
f 50/81/29 45/82/29 46/89/29 49/90/29
f 51/91/30 48/92/30 47/93/30 52/94/30
o cap_2.003
v 0.464921 0.666339 0.288144
v 0.088442 0.666339 -0.088335
v 0.464921 0.333008 0.288144
v 0.088442 0.333008 -0.088335
v -0.088335 0.666339 0.088442
v 0.288144 0.666339 0.464921
v -0.088335 0.333008 0.088442
v 0.288144 0.333008 0.464921
vn -0.7071 -0.0000 -0.7071
vn 0.7071 -0.0000 -0.7071
vn 0.7071 -0.0000 0.7071
vn -0.7071 -0.0000 0.7071
vn -0.0000 1.0000 -0.0000
vn -0.0000 -1.0000 -0.0000
vt 0.000000 0.666669
vt 0.250000 0.666669
vt 0.250000 1.000000
vt 0.000000 1.000000
vt 0.532422 0.666669
vt 0.532422 1.000000
vt 0.467578 0.666669
vt 1.000000 0.666669
vt 1.000000 1.000000
vt 0.467578 1.000000
vt 0.000000 0.467578
vt 0.250000 0.467578
vt 0.826172 0.250000
vt 0.826172 0.500000
vt 0.293750 0.500000
vt 0.293750 0.250000
s 0
usemtl m_784fe880-58fc-042e-8502-401ed0182bcd.001
f 56/95/31 59/96/31 57/97/31 54/98/31
f 55/95/32 56/99/32 54/100/32 53/98/32
f 60/95/33 55/96/33 53/97/33 58/98/33
f 59/101/34 60/102/34 58/103/34 57/104/34
f 58/97/35 53/98/35 54/105/35 57/106/35
f 59/107/36 56/108/36 55/109/36 60/110/36
o cap_3.003
v 0.299193 1.001300 0.122416
v 0.000053 1.001300 -0.176723
v 0.299193 0.666992 0.122416
v 0.000053 0.666992 -0.176723
v -0.176723 1.001300 0.000053
v 0.122416 1.001300 0.299193
v -0.176723 0.666992 0.000053
v 0.122416 0.666992 0.299193
vn -0.7071 -0.0000 -0.7071
vn 0.7071 -0.0000 -0.7071
vn 0.7071 -0.0000 0.7071
vn -0.7071 -0.0000 0.7071
vn -0.0000 1.0000 -0.0000
vn -0.0000 -1.0000 -0.0000
vt 0.000000 0.665692
vt 0.250000 0.665692
vt 0.250000 1.000000
vt 0.000000 1.000000
vt 0.423047 0.665692
vt 0.423047 1.000000
vt 0.576953 0.665692
vt 1.000000 0.665692
vt 1.000000 1.000000
vt 0.576953 1.000000
vt 0.000000 0.576953
vt 0.250000 0.576953
vt 0.716797 0.250000
vt 0.716797 0.500000
vt 0.293750 0.500000
vt 0.293750 0.250000
s 0
usemtl m_784fe880-58fc-042e-8502-401ed0182bcd.001
f 64/111/37 67/112/37 65/113/37 62/114/37
f 63/111/38 64/115/38 62/116/38 61/114/38
f 68/111/39 63/112/39 61/113/39 66/114/39
f 67/117/40 68/118/40 66/119/40 65/120/40
f 66/113/41 61/114/41 62/121/41 65/122/41
f 67/123/42 64/124/42 63/125/42 68/126/42
o fill_2.011
v 0.375000 0.250000 0.125000
v 0.375000 0.250000 -0.000000
v 0.375000 0.125000 0.125000
v 0.375000 0.125000 -0.000000
v 0.125000 0.250000 -0.000000
v 0.125000 0.250000 0.125000
v 0.125000 0.125000 -0.000000
v 0.125000 0.125000 0.125000
vn -0.0000 -0.0000 -1.0000
vn 1.0000 -0.0000 -0.0000
vn -0.0000 -0.0000 1.0000
vn -1.0000 -0.0000 -0.0000
vn -0.0000 1.0000 -0.0000
vn -0.0000 -1.0000 -0.0000
vt 0.375000 0.875000
vt 0.625000 0.875000
vt 0.625000 0.750000
vt 0.375000 0.750000
vt 0.000000 0.875000
vt 0.125000 0.875000
vt 0.125000 1.000000
vt 0.000000 1.000000
vt 0.250000 0.875000
vt 0.250000 1.000000
s 0
usemtl m_feffc980-587f-3950-8a66-de9cc4e92536.001
f 72/127/43 75/128/43 73/129/43 70/130/43
f 71/131/44 72/132/44 70/133/44 69/134/44
f 76/131/45 71/135/45 69/136/45 74/134/45
f 75/131/46 76/132/46 74/133/46 73/134/46
f 74/131/47 69/135/47 70/136/47 73/134/47
f 75/131/48 72/135/48 71/136/48 76/134/48
o fill_3.013
v 0.125000 0.250000 0.375000
v 0.125000 0.250000 0.125000
v 0.125000 0.125000 0.375000
v 0.125000 0.125000 0.125000
v 0.000000 0.250000 0.125000
v 0.000000 0.250000 0.375000
v 0.000000 0.125000 0.125000
v 0.000000 0.125000 0.375000
vn -0.0000 -0.0000 -1.0000
vn 1.0000 -0.0000 -0.0000
vn -0.0000 -0.0000 1.0000
vn -1.0000 -0.0000 -0.0000
vn -0.0000 1.0000 -0.0000
vn -0.0000 -1.0000 -0.0000
vt 0.000000 0.875000
vt 0.125000 0.875000
vt 0.125000 1.000000
vt 0.000000 1.000000
vt 0.250000 0.875000
vt 0.250000 1.000000
vt 0.375000 0.875000
vt 0.375000 0.750000
vt 0.125000 0.750000
s 0
usemtl m_feffc980-587f-3950-8a66-de9cc4e92536.001
f 80/137/49 83/138/49 81/139/49 78/140/49
f 79/137/50 80/141/50 78/142/50 77/140/50
f 84/137/51 79/138/51 77/139/51 82/140/51
f 83/138/52 84/143/52 82/144/52 81/145/52
f 82/140/53 77/137/53 78/141/53 81/142/53
f 83/141/54 80/142/54 79/140/54 84/137/54
o fill_4.015
v 0.125000 0.500000 0.296875
v 0.125000 0.500000 0.171875
v 0.125000 0.250000 0.296875
v 0.125000 0.250000 0.171875
v 0.000000 0.500000 0.171875
v 0.000000 0.500000 0.296875
v 0.000000 0.250000 0.171875
v 0.000000 0.250000 0.296875
vn -0.0000 -0.0000 -1.0000
vn 1.0000 -0.0000 -0.0000
vn -0.0000 -0.0000 1.0000
vn -1.0000 -0.0000 -0.0000
vn -0.0000 1.0000 -0.0000
vn -0.0000 -1.0000 -0.0000
vt 0.000000 0.750000
vt 0.125000 0.750000
vt 0.125000 1.000000
vt 0.000000 1.000000
vt 0.234375 0.750000
vt 0.359375 0.750000
vt 0.359375 0.500000
vt 0.234375 0.500000
vt 0.000000 0.875000
vt 0.125000 0.875000
s 0
usemtl m_feffc980-587f-3950-8a66-de9cc4e92536.001
f 88/146/55 91/147/55 89/148/55 86/149/55
f 87/146/56 88/147/56 86/148/56 85/149/56
f 92/146/57 87/147/57 85/148/57 90/149/57
f 91/150/58 92/151/58 90/152/58 89/153/58
f 90/149/59 85/154/59 86/155/59 89/148/59
f 91/155/60 88/148/60 87/149/60 92/154/60
o fill_5.013
v 0.296875 0.500000 0.125000
v 0.296875 0.500000 -0.000000
v 0.296875 0.250000 0.125000
v 0.296875 0.250000 -0.000000
v 0.171875 0.500000 -0.000000
v 0.171875 0.500000 0.125000
v 0.171875 0.250000 -0.000000
v 0.171875 0.250000 0.125000
vn -0.0000 -0.0000 -1.0000
vn 1.0000 -0.0000 -0.0000
vn -0.0000 -0.0000 1.0000
vn -1.0000 -0.0000 -0.0000
vn -0.0000 1.0000 -0.0000
vn -0.0000 -1.0000 -0.0000
vt 0.703125 0.750000
vt 0.828125 0.750000
vt 0.828125 0.500000
vt 0.703125 0.500000
vt 0.000000 0.750000
vt 0.125000 0.750000
vt 0.125000 1.000000
vt 0.000000 1.000000
vt 0.000000 0.875000
vt 0.125000 0.875000
s 0
usemtl m_feffc980-587f-3950-8a66-de9cc4e92536.001
f 96/156/61 99/157/61 97/158/61 94/159/61
f 95/160/62 96/161/62 94/162/62 93/163/62
f 100/160/63 95/161/63 93/162/63 98/163/63
f 99/160/64 100/161/64 98/162/64 97/163/64
f 98/164/65 93/165/65 94/162/65 97/163/65
f 99/164/66 96/165/66 95/162/66 100/163/66
o fill_bottom.001
v 0.500000 0.125000 0.500000
v 0.500000 0.125000 -0.000000
v 0.500000 0.000000 0.500000
v 0.500000 0.000000 0.000000
v 0.000000 0.125000 -0.000000
v 0.000000 0.125000 0.500000
v 0.000000 0.000000 0.000000
v 0.000000 0.000000 0.500000
vn -0.0000 -0.0000 -1.0000
vn 1.0000 -0.0000 -0.0000
vn -0.0000 -0.0000 1.0000
vn -1.0000 -0.0000 -0.0000
vn -0.0000 1.0000 -0.0000
vn -0.0000 -1.0000 -0.0000
vt 0.500000 1.000000
vt 1.000000 1.000000
vt 1.000000 0.875000
vt 0.500000 0.875000
vt 0.000000 0.875000
vt 0.000000 1.000000
vt 0.000000 0.500000
vt 0.500000 0.500000
vt 1.000000 0.000000
vt 0.500000 0.000000
vt 1.000000 0.500000
s 0
usemtl m_feffc980-587f-3950-8a66-de9cc4e92536.001
f 104/166/67 107/167/67 105/168/67 102/169/67
f 103/170/68 104/169/68 102/166/68 101/171/68
f 108/170/69 103/169/69 101/166/69 106/171/69
f 107/171/70 108/166/70 106/169/70 105/170/70
f 106/172/71 101/173/71 102/166/71 105/171/71
f 107/174/72 104/175/72 103/173/72 108/176/72
