# Blender 4.0.2
# www.blender.org
mtllib roof_67_outer.mtl
o 1.008
v 1.082493 0.083616 0.906875
v 1.082493 0.083616 -0.000625
v 0.998939 0.000062 0.906875
v 0.998939 0.000062 -0.000625
v 0.795230 0.370878 -0.000625
v 0.795230 0.370878 0.906875
v 0.711677 0.287325 -0.000625
vn -0.0000 -0.0000 -1.0000
vn 0.7071 -0.7071 -0.0000
vn 0.7071 0.7071 -0.0000
vt 0.000000 0.875000
vt 0.406251 0.875000
vt 0.406251 1.000000
vt 0.000000 1.000000
vt 0.907500 0.437500
vt 0.000000 0.437500
vt 0.000000 0.562500
vt 0.907500 0.562500
vt 0.406251 0.092500
vt 0.000000 0.092500
s 0
usemtl m_353253bc-a79e-4e78-9355-ee4156d636a6.001
f 4/1/1 7/2/1 5/3/1 2/4/1
usemtl m_c05d0f21-3176-8f3f-656b-c3aea4c27ddd.001
f 3/5/2 4/6/2 2/7/2 1/8/2
f 6/9/3 1/10/3 2/4/3 5/3/3
o 1r.005
v 0.906875 0.083616 1.082493
v 0.906875 0.370878 0.795230
v 0.906875 0.000062 0.998939
v -0.000625 0.370878 0.795230
v -0.000625 0.083616 1.082493
v -0.000625 0.287325 0.711677
v -0.000625 0.000062 0.998939
vn -0.0000 -0.7071 0.7071
vn -1.0000 -0.0000 -0.0000
vn -0.0000 0.7071 0.7071
vt 1.000000 0.437500
vt 0.092500 0.437500
vt 0.092500 0.562500
vt 1.000000 0.562500
vt 0.000000 0.875000
vt 0.406251 0.875000
vt 0.406251 1.000000
vt 0.000000 1.000000
vt 0.000000 0.000000
vt 0.000000 0.907500
vt 0.406251 0.907500
vt 0.406251 0.000000
s 0
usemtl m_c05d0f21-3176-8f3f-656b-c3aea4c27ddd.001
f 14/11/4 10/12/4 8/13/4 12/14/4
f 12/19/6 8/20/6 9/21/6 11/22/6
usemtl m_353253bc-a79e-4e78-9355-ee4156d636a6.001
f 13/15/5 14/16/5 12/17/5 11/18/5
o 2.008
v 0.934718 0.398499 0.766250
v 0.934718 0.398499 -0.000625
v 0.851165 0.314946 0.766250
v 0.851165 0.314946 -0.000625
v 0.647456 0.685762 -0.000625
v 0.647456 0.685762 0.766250
v 0.563902 0.602208 -0.000625
vn -0.0000 -0.0000 -1.0000
vn 0.7071 -0.7071 -0.0000
vn 0.7071 0.7071 -0.0000
vt 0.000000 0.875000
vt 0.406251 0.875000
vt 0.406251 1.000000
vt 0.000000 1.000000
vt 0.766875 0.437500
vt 0.000000 0.437500
vt 0.000000 0.562500
vt 0.766875 0.562500
vt 0.406251 0.233125
vt 0.000000 0.233125
s 0
usemtl m_353253bc-a79e-4e78-9355-ee4156d636a6.001
f 18/23/7 21/24/7 19/25/7 16/26/7
usemtl m_c05d0f21-3176-8f3f-656b-c3aea4c27ddd.001
f 17/27/8 18/28/8 16/29/8 15/30/8
f 20/31/9 15/32/9 16/26/9 19/25/9
o 2r.005
v 0.766250 0.398499 0.934718
v 0.766250 0.685762 0.647456
v 0.766250 0.314946 0.851165
v -0.000625 0.685762 0.647456
v -0.000625 0.398499 0.934718
v -0.000625 0.602208 0.563902
v -0.000625 0.314946 0.851165
vn -0.0000 -0.7071 0.7071
vn -1.0000 -0.0000 -0.0000
vn -0.0000 0.7071 0.7071
vt 1.000000 0.437500
vt 0.233125 0.437500
vt 0.233125 0.562500
vt 1.000000 0.562500
vt 0.000000 0.875000
vt 0.406251 0.875000
vt 0.406251 1.000000
vt 0.000000 1.000000
vt 0.000000 0.000000
vt 0.000000 0.766875
vt 0.406251 0.766875
vt 0.406251 0.000000
s 0
usemtl m_c05d0f21-3176-8f3f-656b-c3aea4c27ddd.001
f 28/33/10 24/34/10 22/35/10 26/36/10
f 26/41/12 22/42/12 23/43/12 25/44/12
usemtl m_353253bc-a79e-4e78-9355-ee4156d636a6.001
f 27/37/11 28/38/11 26/39/11 25/40/11
o 3.008
v 0.786944 0.713383 0.610000
v 0.786944 0.713383 -0.000625
v 0.703391 0.629829 0.610000
v 0.703391 0.629829 -0.000625
v 0.500370 0.999957 -0.000625
v 0.500370 0.999957 0.610000
v 0.416817 0.916403 -0.000625
vn -0.0000 -0.0000 -1.0000
vn 0.7071 -0.7071 -0.0000
vn 0.7071 0.7071 -0.0000
vt 0.000000 0.875000
vt 0.405277 0.875000
vt 0.405277 1.000000
vt 0.000000 1.000000
vt 0.610625 0.437500
vt 0.000000 0.437500
vt 0.000000 0.562500
vt 0.610625 0.562500
vt 0.405277 0.389375
vt 0.000000 0.389375
s 0
usemtl m_353253bc-a79e-4e78-9355-ee4156d636a6.001
f 32/45/13 35/46/13 33/47/13 30/48/13
usemtl m_c05d0f21-3176-8f3f-656b-c3aea4c27ddd.001
f 31/49/14 32/50/14 30/51/14 29/52/14
f 34/53/15 29/54/15 30/48/15 33/47/15
o 3r.005
v 0.610000 0.713383 0.786944
v 0.610000 0.999957 0.500370
v 0.610000 0.629829 0.703391
v -0.000625 0.999957 0.500370
v -0.000625 0.713383 0.786944
v -0.000625 0.916403 0.416817
v -0.000625 0.629829 0.703391
vn -0.0000 -0.7071 0.7071
vn -1.0000 -0.0000 -0.0000
vn -0.0000 0.7071 0.7071
vt 1.000000 0.437500
vt 0.389375 0.437500
vt 0.389375 0.562500
vt 1.000000 0.562500
vt 0.000000 0.875000
vt 0.405277 0.875000
vt 0.405277 1.000000
vt 0.000000 1.000000
vt 0.000000 0.000000
vt 0.000000 0.610625
vt 0.405277 0.610625
vt 0.405277 0.000000
s 0
usemtl m_c05d0f21-3176-8f3f-656b-c3aea4c27ddd.001
f 42/55/16 38/56/16 36/57/16 40/58/16
f 40/63/18 36/64/18 37/65/18 39/66/18
usemtl m_353253bc-a79e-4e78-9355-ee4156d636a6.001
f 41/59/17 42/60/17 40/61/17 39/62/17
o cap_1.002
v 1.132667 0.333331 0.955891
v 0.588388 0.333331 0.411612
v 1.132667 0.000977 0.955891
v 0.588388 0.000977 0.411612
v 0.411612 0.333331 0.588388
v 0.955891 0.333331 1.132667
v 0.411612 0.000977 0.588388
v 0.955891 0.000977 1.132667
vn -0.7071 -0.0000 -0.7071
vn 0.7071 -0.0000 -0.7071
vn 0.7071 -0.0000 0.7071
vn -0.7071 -0.0000 0.7071
vn -0.0000 1.0000 -0.0000
vn -0.0000 -1.0000 -0.0000
vt 0.000000 0.667645
vt 0.250000 0.667645
vt 0.250000 1.000000
vt 0.000000 1.000000
vt 0.769727 0.667645
vt 0.769727 1.000000
vt 0.217578 0.667645
vt 0.987305 0.667645
vt 0.987305 1.000000
vt 0.217578 1.000000
vt 0.000000 0.230273
vt 0.250000 0.230273
vt 0.769727 0.000000
vt 0.769727 0.250000
vt 0.000000 0.250000
vt 0.000000 0.000000
s 0
usemtl m_c05d0f21-3176-8f3f-656b-c3aea4c27ddd.001
f 46/67/19 49/68/19 47/69/19 44/70/19
f 45/67/20 46/71/20 44/72/20 43/70/20
f 50/67/21 45/68/21 43/69/21 48/70/21
f 49/73/22 50/74/22 48/75/22 47/76/22
f 48/69/23 43/70/23 44/77/23 47/78/23
f 49/79/24 46/80/24 45/81/24 50/82/24
o cap_2.002
v 0.964867 0.666339 0.788091
v 0.588388 0.666339 0.411612
v 0.964867 0.333008 0.788091
v 0.588388 0.333008 0.411612
v 0.411612 0.666339 0.588388
v 0.788091 0.666339 0.964867
v 0.411612 0.333008 0.588388
v 0.788091 0.333008 0.964867
vn -0.7071 -0.0000 -0.7071
vn 0.7071 -0.0000 -0.7071
vn 0.7071 -0.0000 0.7071
vn -0.7071 -0.0000 0.7071
vn -0.0000 1.0000 -0.0000
vn -0.0000 -1.0000 -0.0000
vt 0.000000 0.666669
vt 0.250000 0.666669
vt 0.250000 1.000000
vt 0.000000 1.000000
vt 0.532422 0.666669
vt 0.532422 1.000000
vt 0.467578 0.666669
vt 1.000000 0.666669
vt 1.000000 1.000000
vt 0.467578 1.000000
vt 0.000000 0.467578
vt 0.250000 0.467578
vt 0.826172 0.250000
vt 0.826172 0.500000
vt 0.293750 0.500000
vt 0.293750 0.250000
s 0
usemtl m_c05d0f21-3176-8f3f-656b-c3aea4c27ddd.001
f 54/83/25 57/84/25 55/85/25 52/86/25
f 53/83/26 54/87/26 52/88/26 51/86/26
f 58/83/27 53/84/27 51/85/27 56/86/27
f 57/89/28 58/90/28 56/91/28 55/92/28
f 56/85/29 51/86/29 52/93/29 55/94/29
f 57/95/30 54/96/30 53/97/30 58/98/30
o cap_3.002
v 0.803973 1.001300 0.627196
v 0.501381 1.001300 0.324604
v 0.803973 0.666993 0.627196
v 0.501381 0.666992 0.324604
v 0.324604 1.001300 0.501381
v 0.627197 1.001300 0.803973
v 0.324604 0.666993 0.501381
v 0.627197 0.666993 0.803973
vn -0.7071 -0.0000 -0.7071
vn 0.7071 -0.0000 -0.7071
vn 0.7071 -0.0000 0.7071
vn -0.7071 -0.0000 0.7071
vn -0.0000 1.0000 -0.0000
vn -0.0000 -1.0000 -0.0000
vt 0.000000 0.665692
vt 0.250000 0.665692
vt 0.250000 1.000000
vt 0.000000 1.000000
vt 0.427930 0.665692
vt 0.427930 1.000000
vt 0.572070 0.665692
vt 1.000000 0.665692
vt 1.000000 1.000000
vt 0.572070 1.000000
vt 0.000000 0.572070
vt 0.250000 0.572070
vt 0.721680 0.250000
vt 0.721680 0.500000
vt 0.293750 0.500000
vt 0.293750 0.250000
s 0
usemtl m_c05d0f21-3176-8f3f-656b-c3aea4c27ddd.001
f 62/99/31 65/100/31 63/101/31 60/102/31
f 61/99/32 62/103/32 60/104/32 59/102/32
f 66/99/33 61/100/33 59/101/33 64/102/33
f 65/105/34 66/106/34 64/107/34 63/108/34
f 64/101/35 59/102/35 60/109/35 63/110/35
f 65/111/36 62/112/36 61/113/36 66/114/36
o cube.001
v 1.000000 0.156250 0.843750
v 1.000000 0.156250 -0.000000
v 1.000000 0.000000 0.843750
v 1.000000 0.000000 0.000000
v 0.843750 0.156250 -0.000000
v 0.843750 0.156250 0.843750
v 0.843750 0.000000 0.000000
v 0.843750 0.000000 0.843750
vn -0.0000 -0.0000 -1.0000
vn 1.0000 -0.0000 -0.0000
vn -0.0000 -0.0000 1.0000
vn -1.0000 -0.0000 -0.0000
vn -0.0000 1.0000 -0.0000
vn -0.0000 -1.0000 -0.0000
vt 0.000000 1.000000
vt 0.156250 1.000000
vt 0.156250 0.843750
vt 0.000000 0.843750
vt 0.843750 0.843750
vt 0.843750 1.000000
vt 0.000000 0.156250
vt 0.156250 0.156250
vt 0.156250 0.000000
vt 0.000000 0.000000
s 0
usemtl m_353253bc-a79e-4e78-9355-ee4156d636a6.001
f 70/115/37 73/116/37 71/117/37 68/118/37
f 69/118/38 70/119/38 68/120/38 67/115/38
f 74/118/39 69/117/39 67/116/39 72/115/39
f 73/118/40 74/119/40 72/120/40 71/115/40
f 72/121/41 67/122/41 68/116/41 71/115/41
f 73/123/42 70/124/42 69/118/42 74/117/42
o fill_1.008
v 1.000000 0.156250 0.999999
v 1.000000 0.156250 0.843749
v 1.000000 0.000000 0.999999
v 1.000000 0.000000 0.843749
v 0.000000 0.156250 0.843749
v 0.000000 0.156250 0.999999
v 0.000000 0.000000 0.843749
v 0.000000 0.000000 0.999999
vn -0.0000 -0.0000 -1.0000
vn 1.0000 -0.0000 -0.0000
vn -0.0000 -0.0000 1.0000
vn -1.0000 -0.0000 -0.0000
vn -0.0000 1.0000 -0.0000
vn -0.0000 -1.0000 -0.0000
vt 0.000000 0.843750
vt 1.000000 0.843750
vt 1.000000 1.000000
vt 0.000000 1.000000
vt 0.500000 0.000000
vt 0.656250 0.000000
vt 0.656250 0.156250
vt 0.500000 0.156250
vt 0.843750 1.000000
vt 0.843750 0.843750
vt 0.000000 0.000000
vt 0.156250 0.000000
vt 0.156250 1.000000
s 0
usemtl m_353253bc-a79e-4e78-9355-ee4156d636a6.001
f 78/125/43 81/126/43 79/127/43 76/128/43
f 77/129/44 78/130/44 76/131/44 75/132/44
f 82/125/45 77/126/45 75/127/45 80/128/45
f 81/133/46 82/127/46 80/126/46 79/134/46
f 80/128/47 75/135/47 76/136/47 79/137/47
f 81/126/48 78/125/48 77/128/48 82/127/48
o fill_3.009
v 0.843750 0.437500 0.843749
v 0.843750 0.437500 -0.000000
v 0.843750 0.000000 0.843749
v 0.843750 0.000000 0.000000
v 0.000000 0.437500 -0.000000
v 0.000000 0.437500 0.843749
v 0.000000 0.000000 0.000000
v 0.000000 0.000000 0.843749
vn -0.0000 -0.0000 -1.0000
vn 1.0000 -0.0000 -0.0000
vn -0.0000 -0.0000 1.0000
vn -1.0000 -0.0000 -0.0000
vn -0.0000 1.0000 -0.0000
vn -0.0000 -1.0000 -0.0000
vt 0.156250 1.000000
vt 1.000000 1.000000
vt 1.000000 0.562500
vt 0.156250 0.562500
vt 0.156251 0.125000
vt 1.000000 0.125000
vt 0.156251 0.562500
vt 0.000000 0.562500
vt 0.843750 0.562500
vt 0.843750 1.000000
vt 0.000000 1.000000
vt 0.843749 1.000000
vt 0.843749 0.562500
vt 0.000000 0.156250
vt 0.843749 0.156250
vt 1.000000 0.000000
vt 0.156250 0.000000
vt 0.156250 0.843749
vt 1.000000 0.843749
s 0
usemtl m_353253bc-a79e-4e78-9355-ee4156d636a6.001
f 86/138/49 89/139/49 87/140/49 84/141/49
f 85/142/50 86/143/50 84/140/50 83/144/50
f 90/145/51 85/146/51 83/147/51 88/148/51
f 89/148/52 90/149/52 88/150/52 87/145/52
f 88/148/53 83/151/53 84/152/53 87/149/53
f 89/153/54 86/154/54 85/155/54 90/156/54
o fill_4.010
v 0.656250 0.765625 0.671874
v 0.656250 0.765625 -0.000000
v 0.656250 0.562500 0.671874
v 0.656250 0.562500 -0.000000
v 0.000000 0.765625 -0.000000
v 0.000000 0.765625 0.671874
v 0.000000 0.562500 -0.000000
v 0.000000 0.562500 0.671874
vn -0.0000 -0.0000 -1.0000
vn 1.0000 -0.0000 -0.0000
vn -0.0000 -0.0000 1.0000
vn -1.0000 -0.0000 -0.0000
vn -0.0000 1.0000 -0.0000
vn -0.0000 -1.0000 -0.0000
vt 0.343750 0.437500
vt 1.000000 0.437500
vt 1.000000 0.234375
vt 0.343750 0.234375
vt 0.328126 0.562500
vt 1.000000 0.562500
vt 1.000000 0.765625
vt 0.328126 0.765625
vt 0.000000 0.796875
vt 0.656250 0.796875
vt 0.656250 1.000000
vt 0.000000 1.000000
vt 0.000000 0.437500
vt 0.671874 0.437500
vt 0.671874 0.234375
vt 0.000000 0.234375
vt 0.000000 0.343750
vt 0.671874 0.343750
vt 0.671874 1.000000
s 0
usemtl m_353253bc-a79e-4e78-9355-ee4156d636a6.001
f 94/157/55 97/158/55 95/159/55 92/160/55
f 93/161/56 94/162/56 92/163/56 91/164/56
f 98/165/57 93/166/57 91/167/57 96/168/57
f 97/169/58 98/170/58 96/171/58 95/172/58
f 96/168/59 91/173/59 92/174/59 95/175/59
f 97/173/60 94/168/60 93/175/60 98/174/60
o fill_4.011
v 0.750000 0.562500 0.749999
v 0.750000 0.562500 -0.000000
v 0.750000 0.437500 0.749999
v 0.750000 0.437500 -0.000000
v 0.000000 0.562500 -0.000000
v 0.000000 0.562500 0.749999
v 0.000000 0.437500 -0.000000
v 0.000000 0.437500 0.749999
vn -0.0000 -0.0000 -1.0000
vn 1.0000 -0.0000 -0.0000
vn -0.0000 -0.0000 1.0000
vn -1.0000 -0.0000 -0.0000
vn -0.0000 1.0000 -0.0000
vn -0.0000 -1.0000 -0.0000
vt 0.250000 0.562500
vt 1.000000 0.562500
vt 1.000000 0.437500
vt 0.250000 0.437500
vt 0.250001 0.640625
vt 1.000000 0.640625
vt 1.000000 0.765625
vt 0.250001 0.765625
vt 0.000000 0.875000
vt 0.750000 0.875000
vt 0.750000 1.000000
vt 0.000000 1.000000
vt 0.000000 0.562500
vt 0.749999 0.562500
vt 0.749999 0.437500
vt 0.000000 0.437500
vt 0.000000 0.250000
vt 0.749999 0.250000
vt 0.749999 1.000000
s 0
usemtl m_353253bc-a79e-4e78-9355-ee4156d636a6.001
f 102/176/61 105/177/61 103/178/61 100/179/61
f 101/180/62 102/181/62 100/182/62 99/183/62
f 106/184/63 101/185/63 99/186/63 104/187/63
f 105/188/64 106/189/64 104/190/64 103/191/64
f 104/187/65 99/192/65 100/193/65 103/194/65
f 105/192/66 102/187/66 101/194/66 106/193/66
o fill_5.009
v 0.593750 0.890625 0.593749
v 0.593750 0.890625 -0.000000
v 0.593750 0.765625 0.593749
v 0.593750 0.765625 -0.000000
v 0.000000 0.890625 -0.000000
v 0.000000 0.890625 0.593749
v 0.000000 0.765625 -0.000000
v 0.000000 0.765625 0.593749
vn -0.0000 -0.0000 -1.0000
vn 1.0000 -0.0000 -0.0000
vn -0.0000 -0.0000 1.0000
vn -1.0000 -0.0000 -0.0000
vn -0.0000 1.0000 -0.0000
vn -0.0000 -1.0000 -0.0000
vt 0.406250 0.234375
vt 1.000000 0.234375
vt 1.000000 0.109375
vt 0.406250 0.109375
vt 0.406251 0.765625
vt 1.000000 0.765625
vt 1.000000 0.890625
vt 0.406251 0.890625
vt 0.000000 0.875000
vt 0.593750 0.875000
vt 0.593750 1.000000
vt 0.000000 1.000000
vt 0.000000 0.234375
vt 0.593749 0.234375
vt 0.593749 0.109375
vt 0.000000 0.109375
vt 0.000000 0.406250
vt 0.593749 0.406250
vt 0.593749 1.000000
s 0
usemtl m_353253bc-a79e-4e78-9355-ee4156d636a6.001
f 110/195/67 113/196/67 111/197/67 108/198/67
f 109/199/68 110/200/68 108/201/68 107/202/68
f 114/203/69 109/204/69 107/205/69 112/206/69
f 113/207/70 114/208/70 112/209/70 111/210/70
f 112/206/71 107/211/71 108/212/71 111/213/71
f 113/211/72 110/206/72 109/213/72 114/212/72
o fill_6.005
v 0.500000 1.000000 0.499999
v 0.500000 1.000000 -0.000000
v 0.500000 0.890625 0.499999
v 0.500000 0.890625 -0.000000
v 0.000000 1.000000 -0.000000
v 0.000000 1.000000 0.499999
v 0.000000 0.890625 -0.000000
v 0.000000 0.890625 0.499999
vn -0.0000 -0.0000 -1.0000
vn 1.0000 -0.0000 -0.0000
vn -0.0000 -0.0000 1.0000
vn -1.0000 -0.0000 -0.0000
vn -0.0000 1.0000 -0.0000
vn -0.0000 -1.0000 -0.0000
vt 0.500000 0.109375
vt 1.000000 0.109375
vt 1.000000 0.000000
vt 0.500000 0.000000
vt 0.500001 0.890625
vt 1.000000 0.890625
vt 1.000000 1.000000
vt 0.500001 1.000000
vt 0.000000 0.890625
vt 0.500000 0.890625
vt 0.500000 1.000000
vt 0.000000 1.000000
vt 0.000000 0.109375
vt 0.499999 0.109375
vt 0.499999 0.000000
vt 0.000000 0.000000
vt 1.000000 0.500001
vt 0.500000 0.500001
vt 0.000000 0.500000
vt 0.499999 1.000000
vt 0.499999 0.500000
s 0
usemtl m_353253bc-a79e-4e78-9355-ee4156d636a6.001
f 118/214/73 121/215/73 119/216/73 116/217/73
f 117/218/74 118/219/74 116/220/74 115/221/74
f 122/222/75 117/223/75 115/224/75 120/225/75
f 121/226/76 122/227/76 120/228/76 119/229/76
f 120/230/77 115/231/77 116/224/77 119/220/77
f 121/232/78 118/225/78 117/233/78 122/234/78
