# Blender 4.0.2
# www.blender.org
mtllib roof_67.mtl
o 1.006
v 1.082493 0.083616 1.000625
v 1.082493 0.083616 -0.000625
v 0.998939 0.000062 1.000625
v 0.998939 0.000062 -0.000625
v 0.795230 0.370878 -0.000625
v 0.795230 0.370878 1.000625
v 0.711677 0.287325 -0.000625
v 0.711677 0.287325 1.000625
vn -0.0000 -0.0000 -1.0000
vn 0.7071 -0.7071 -0.0000
vn -0.0000 -0.0000 1.0000
vn 0.7071 0.7071 -0.0000
vn -0.7071 -0.7071 -0.0000
vt 0.000000 0.875000
vt 0.328125 0.875000
vt 0.328125 1.000000
vt 0.000000 1.000000
vt 1.000000 0.437500
vt 0.000000 0.437500
vt 0.000000 0.562500
vt 1.000000 0.562500
vt 0.406251 0.000000
vt 0.000000 0.000000
vt 0.406251 1.000000
vt 0.000000 0.812500
vt 0.000000 0.406249
vt 1.000000 0.406249
vt 1.000000 0.812500
s 0
usemtl m_767ca399-8854-3cc9-110a-de4067275b4a.002
f 4/1/1 7/2/1 5/3/1 2/4/1
f 8/1/3 3/2/3 1/3/3 6/4/3
f 7/12/5 4/13/5 3/14/5 8/15/5
usemtl m_431e87b7-1d1d-475a-1708-46390f880520.002
f 3/5/2 4/6/2 2/7/2 1/8/2
f 6/9/4 1/10/4 2/4/4 5/11/4
o 2.006
v 0.934718 0.398499 1.000625
v 0.934718 0.398499 -0.000625
v 0.851165 0.314946 1.000625
v 0.851165 0.314946 -0.000625
v 0.647456 0.685762 -0.000625
v 0.647456 0.685762 1.000625
v 0.563902 0.602208 -0.000625
v 0.563902 0.602208 1.000625
vn -0.0000 -0.0000 -1.0000
vn 0.7071 -0.7071 -0.0000
vn -0.0000 -0.0000 1.0000
vn 0.7071 0.7071 -0.0000
vt 0.000000 0.875000
vt 0.328125 0.875000
vt 0.328125 1.000000
vt 0.000000 1.000000
vt 1.000000 0.437500
vt 0.000000 0.437500
vt 0.000000 0.562500
vt 1.000000 0.562500
vt 0.406251 0.000000
vt 0.000000 0.000000
vt 0.406251 1.000000
s 0
usemtl m_767ca399-8854-3cc9-110a-de4067275b4a.002
f 12/16/6 15/17/6 13/18/6 10/19/6
f 16/16/8 11/17/8 9/18/8 14/19/8
usemtl m_431e87b7-1d1d-475a-1708-46390f880520.002
f 11/20/7 12/21/7 10/22/7 9/23/7
f 14/24/9 9/25/9 10/19/9 13/26/9
o 3.006
v 0.786944 0.713383 1.000625
v 0.786944 0.713383 -0.000625
v 0.703391 0.629829 1.000625
v 0.703391 0.629829 -0.000625
v 0.500370 0.999957 -0.000625
v 0.500370 0.999957 1.000625
v 0.416817 0.916403 -0.000625
v 0.416817 0.916403 1.000625
vn -0.0000 -0.0000 -1.0000
vn 0.7071 -0.7071 -0.0000
vn -0.0000 -0.0000 1.0000
vn -0.7071 0.7071 -0.0000
vn 0.7071 0.7071 -0.0000
vn -0.7071 -0.7071 -0.0000
vt 0.000000 0.875000
vt 0.328125 0.875000
vt 0.328125 1.000000
vt 0.000000 1.000000
vt 1.000000 0.437500
vt 0.000000 0.437500
vt 0.000000 0.562500
vt 1.000000 0.562500
vt 1.000000 0.875000
vt 1.000000 1.000000
vt 0.405277 0.000000
vt 0.000000 0.000000
vt 0.405277 1.000000
vt 0.000000 0.594723
vt 1.000000 0.594723
s 0
usemtl m_767ca399-8854-3cc9-110a-de4067275b4a.002
f 20/27/10 23/28/10 21/29/10 18/30/10
f 24/27/12 19/28/12 17/29/12 22/30/12
f 23/27/13 24/35/13 22/36/13 21/30/13
f 23/30/15 20/40/15 19/41/15 24/36/15
usemtl m_431e87b7-1d1d-475a-1708-46390f880520.002
f 19/31/11 20/32/11 18/33/11 17/34/11
f 22/37/14 17/38/14 18/30/14 21/39/14
o fill_1.006
v 0.999999 0.156250 1.000000
v 0.999999 0.156250 -0.000000
v 0.999999 0.000000 1.000000
v 0.999999 0.000000 0.000000
v 0.749999 0.156250 -0.000000
v 0.749999 0.156250 1.000000
v 0.749999 0.000000 0.000000
v 0.749999 0.000000 1.000000
vn -0.0000 -0.0000 -1.0000
vn 1.0000 -0.0000 -0.0000
vn -0.0000 -0.0000 1.0000
vn -1.0000 -0.0000 -0.0000
vn -0.0000 1.0000 -0.0000
vn -0.0000 -1.0000 -0.0000
vt 0.000000 1.000000
vt 0.250000 1.000000
vt 0.250000 0.843750
vt 0.000000 0.843750
vt 1.000000 0.843750
vt 1.000000 1.000000
vt 0.750000 1.000000
vt 0.750000 0.843750
vt 0.000000 0.000000
vt 0.250000 0.000000
s 0
usemtl m_767ca399-8854-3cc9-110a-de4067275b4a.002
f 28/42/16 31/43/16 29/44/16 26/45/16
f 27/45/17 28/46/17 26/47/17 25/42/17
f 32/48/18 27/47/18 25/46/18 30/49/18
f 31/42/19 32/47/19 30/46/19 29/45/19
f 30/43/20 25/42/20 26/50/20 29/51/20
f 31/51/21 28/50/21 27/42/21 32/43/21
o fill_2.006
v 0.843749 0.468750 1.000000
v 0.843749 0.468750 -0.000000
v 0.843749 0.156250 1.000000
v 0.843749 0.156250 -0.000000
v 0.749999 0.468750 -0.000000
v 0.749999 0.468750 1.000000
v 0.749999 0.156250 -0.000000
v 0.749999 0.156250 1.000000
vn -0.0000 -0.0000 -1.0000
vn 1.0000 -0.0000 -0.0000
vn -0.0000 -0.0000 1.0000
vn -1.0000 -0.0000 -0.0000
vn -0.0000 1.0000 -0.0000
vn -0.0000 -1.0000 -0.0000
vt 0.156250 0.843750
vt 0.250000 0.843750
vt 0.250000 0.531250
vt 0.156250 0.531250
vt 0.000000 0.687500
vt 1.000000 0.687500
vt 1.000000 1.000000
vt 0.000000 1.000000
vt 0.750000 0.843750
vt 0.843750 0.843750
vt 0.843750 0.531250
vt 0.750000 0.531250
vt 0.093750 1.000000
vt 0.000000 0.000000
vt 0.093750 0.000000
vt 0.250000 1.000000
vt 0.343750 1.000000
vt 0.343750 0.000000
vt 0.250000 0.000000
s 0
usemtl m_767ca399-8854-3cc9-110a-de4067275b4a.002
f 36/52/22 39/53/22 37/54/22 34/55/22
f 35/56/23 36/57/23 34/58/23 33/59/23
f 40/60/24 35/61/24 33/62/24 38/63/24
f 39/59/25 40/58/25 38/57/25 37/56/25
f 38/64/26 33/59/26 34/65/26 37/66/26
f 39/67/27 36/68/27 35/69/27 40/70/27
o fill_3.007
v 0.749999 0.562500 1.000000
v 0.749999 0.562500 -0.000000
v 0.749999 0.000000 1.000000
v 0.749999 0.000000 0.000000
v 0.000000 0.562500 -0.000000
v 0.000000 0.562500 1.000000
v 0.000000 0.000000 0.000000
v 0.000000 0.000000 1.000000
vn -0.0000 -0.0000 -1.0000
vn 1.0000 -0.0000 -0.0000
vn -0.0000 -0.0000 1.0000
vn -1.0000 -0.0000 -0.0000
vn -0.0000 1.0000 -0.0000
vn -0.0000 -1.0000 -0.0000
vt 0.250001 1.000000
vt 1.000000 1.000000
vt 1.000000 0.437500
vt 0.250001 0.437500
vt 0.000000 0.437500
vt 0.000000 1.000000
vt 0.749999 1.000000
vt 0.749999 0.437500
vt 0.000000 0.000000
vt 0.749999 0.000000
vt 1.000000 0.000000
vt 0.250001 0.000000
s 0
usemtl m_767ca399-8854-3cc9-110a-de4067275b4a.002
f 44/71/28 47/72/28 45/73/28 42/74/28
f 43/75/29 44/73/29 42/72/29 41/76/29
f 48/76/30 43/77/30 41/78/30 46/75/30
f 47/76/31 48/72/31 46/73/31 45/75/31
f 46/77/32 41/76/32 42/79/32 45/80/32
f 47/81/33 44/82/33 43/71/33 48/72/33
o fill_4.008
v 0.671874 0.765625 1.000000
v 0.671874 0.765625 -0.000000
v 0.671874 0.562500 1.000000
v 0.671874 0.562500 -0.000000
v 0.000000 0.765625 -0.000000
v 0.000000 0.765625 1.000000
v 0.000000 0.562500 -0.000000
v 0.000000 0.562500 1.000000
vn -0.0000 -0.0000 -1.0000
vn 1.0000 -0.0000 -0.0000
vn -0.0000 -0.0000 1.0000
vn -1.0000 -0.0000 -0.0000
vn -0.0000 1.0000 -0.0000
vn -0.0000 -1.0000 -0.0000
vt 0.328126 0.437500
vt 1.000000 0.437500
vt 1.000000 0.234375
vt 0.328126 0.234375
vt 0.000000 0.796875
vt 1.000000 0.796875
vt 1.000000 1.000000
vt 0.000000 1.000000
vt 0.000000 0.437500
vt 0.671874 0.437500
vt 0.671874 0.234375
vt 0.000000 0.234375
vt 0.671874 1.000000
vt 0.000000 0.000000
vt 0.671874 0.000000
s 0
usemtl m_767ca399-8854-3cc9-110a-de4067275b4a.002
f 52/83/34 55/84/34 53/85/34 50/86/34
f 51/87/35 52/88/35 50/89/35 49/90/35
f 56/91/36 51/92/36 49/93/36 54/94/36
f 55/91/37 56/84/37 54/85/37 53/94/37
f 54/95/38 49/90/38 50/96/38 53/97/38
f 55/90/39 52/95/39 51/97/39 56/96/39
o fill_5.007
v 0.593749 0.890625 1.000000
v 0.593749 0.890625 -0.000000
v 0.593749 0.765625 1.000000
v 0.593749 0.765625 -0.000000
v 0.000000 0.890625 -0.000000
v 0.000000 0.890625 1.000000
v 0.000000 0.765625 -0.000000
v 0.000000 0.765625 1.000000
vn -0.0000 -0.0000 -1.0000
vn 1.0000 -0.0000 -0.0000
vn -0.0000 -0.0000 1.0000
vn -1.0000 -0.0000 -0.0000
vn -0.0000 1.0000 -0.0000
vn -0.0000 -1.0000 -0.0000
vt 0.406251 0.234375
vt 1.000000 0.234375
vt 1.000000 0.109375
vt 0.406251 0.109375
vt 0.000000 0.875000
vt 1.000000 0.875000
vt 1.000000 1.000000
vt 0.000000 1.000000
vt 0.000000 0.234375
vt 0.593749 0.234375
vt 0.593749 0.109375
vt 0.000000 0.109375
vt 0.593749 1.000000
vt 0.000000 0.000000
vt 0.593749 0.000000
s 0
usemtl m_767ca399-8854-3cc9-110a-de4067275b4a.002
f 60/98/40 63/99/40 61/100/40 58/101/40
f 59/102/41 60/103/41 58/104/41 57/105/41
f 64/106/42 59/107/42 57/108/42 62/109/42
f 63/106/43 64/99/43 62/100/43 61/109/43
f 62/110/44 57/105/44 58/111/44 61/112/44
f 63/105/45 60/110/45 59/112/45 64/111/45
o fill_6.003
v 0.499999 1.000000 1.000000
v 0.499999 1.000000 -0.000000
v 0.499999 0.890625 1.000000
v 0.499999 0.890625 -0.000000
v 0.000000 1.000000 -0.000000
v 0.000000 1.000000 1.000000
v 0.000000 0.890625 -0.000000
v 0.000000 0.890625 1.000000
vn -0.0000 -0.0000 -1.0000
vn 1.0000 -0.0000 -0.0000
vn -0.0000 -0.0000 1.0000
vn -1.0000 -0.0000 -0.0000
vn -0.0000 1.0000 -0.0000
vn -0.0000 -1.0000 -0.0000
vt 0.500001 0.109375
vt 1.000000 0.109375
vt 1.000000 0.000000
vt 0.500001 0.000000
vt 0.000000 0.890625
vt 1.000000 0.890625
vt 1.000000 1.000000
vt 0.000000 1.000000
vt 0.000000 0.109375
vt 0.499999 0.109375
vt 0.499999 0.000000
vt 0.000000 0.000000
vt 0.500001 1.000000
vt 0.499999 1.000000
s 0
usemtl m_767ca399-8854-3cc9-110a-de4067275b4a.002
f 68/113/46 71/114/46 69/115/46 66/116/46
f 67/117/47 68/118/47 66/119/47 65/120/47
f 72/121/48 67/122/48 65/123/48 70/124/48
f 71/121/49 72/114/49 70/115/49 69/124/49
f 70/115/50 65/116/50 66/125/50 69/119/50
f 71/120/51 68/126/51 67/123/51 72/124/51
