# Blender 4.0.2
# www.blender.org
mtllib roof_67_top_inner.mtl
o 1.004
v 0.582546 0.083616 1.000625
v 0.582546 0.083616 -0.000625
v 0.498993 0.000062 1.000625
v 0.498993 0.000062 -0.000625
v 0.295284 0.370878 -0.000625
v 0.295284 0.370878 1.000625
v 0.211730 0.287325 -0.000625
v 0.211730 0.287325 1.000625
vn -0.0000 -0.0000 -1.0000
vn 0.7071 -0.7071 -0.0000
vn -0.0000 -0.0000 1.0000
vn 0.7071 0.7071 -0.0000
vn -0.7071 -0.7071 -0.0000
vt 0.000000 0.875000
vt 0.328125 0.875000
vt 0.328125 1.000000
vt 0.000000 1.000000
vt 0.000000 0.437500
vt 1.000000 0.437500
vt 1.000000 0.562500
vt 0.000000 0.562500
vt 0.406251 1.000000
vt 0.000000 0.000000
vt 0.406251 0.000000
vt 0.000000 0.812500
vt 0.000000 0.406249
vt 1.000000 0.406249
vt 1.000000 0.812500
s 0
usemtl m_62d1e402-d7ce-e20e-1a2b-97a524bad1d0
f 4/1/1 7/2/1 5/3/1 2/4/1
f 3/5/2 4/6/2 2/7/2 1/8/2
f 8/1/3 3/2/3 1/3/3 6/4/3
f 6/9/4 1/4/4 2/10/4 5/11/4
f 7/12/5 4/13/5 3/14/5 8/15/5
o 1r.002
v 1.000625 0.083616 0.582546
v 1.000625 0.370878 0.295284
v 1.000625 0.000062 0.498993
v 1.000625 0.287325 0.211730
v -0.000625 0.370878 0.295284
v -0.000625 0.083616 0.582546
v -0.000625 0.287325 0.211730
v -0.000625 0.000062 0.498993
vn 1.0000 -0.0000 -0.0000
vn -0.0000 -0.7071 0.7071
vn -1.0000 -0.0000 -0.0000
vn -0.0000 0.7071 0.7071
vn -0.0000 -0.7071 -0.7071
vt 0.000000 0.875000
vt 0.328125 0.875000
vt 0.328125 1.000000
vt 0.000000 1.000000
vt 0.000000 0.437500
vt 1.000000 0.437500
vt 1.000000 0.562500
vt 0.000000 0.562500
vt 0.000000 0.000000
vt 0.406251 0.000000
vt 0.406251 1.000000
vt 1.000000 0.812500
vt 0.000000 0.812500
vt 0.000000 0.406249
vt 1.000000 0.406249
s 0
usemtl m_62d1e402-d7ce-e20e-1a2b-97a524bad1d0
f 11/16/6 12/17/6 10/18/6 9/19/6
f 16/20/7 11/21/7 9/22/7 14/23/7
f 15/16/8 16/17/8 14/18/8 13/19/8
f 14/19/9 9/24/9 10/25/9 13/26/9
f 15/27/10 12/28/10 11/29/10 16/30/10
o 2.004
v 0.434772 0.398499 1.000625
v 0.434772 0.398499 -0.000625
v 0.351218 0.314946 1.000625
v 0.351218 0.314946 -0.000625
v 0.147509 0.685762 -0.000625
v 0.147509 0.685762 1.000625
v 0.063956 0.602208 -0.000625
v 0.063956 0.602208 1.000625
vn -0.0000 -0.0000 -1.0000
vn 0.7071 -0.7071 -0.0000
vn -0.0000 -0.0000 1.0000
vn 0.7071 0.7071 -0.0000
vt 0.000000 0.875000
vt 0.328125 0.875000
vt 0.328125 1.000000
vt 0.000000 1.000000
vt 0.000000 0.437500
vt 1.000000 0.437500
vt 1.000000 0.562500
vt 0.000000 0.562500
vt 0.406251 1.000000
vt 0.000000 0.000000
vt 0.406251 0.000000
s 0
usemtl m_62d1e402-d7ce-e20e-1a2b-97a524bad1d0
f 20/31/11 23/32/11 21/33/11 18/34/11
f 19/35/12 20/36/12 18/37/12 17/38/12
f 24/31/13 19/32/13 17/33/13 22/34/13
f 22/39/14 17/34/14 18/40/14 21/41/14
o 2r.002
v 1.000625 0.398499 0.434772
v 1.000625 0.685762 0.147509
v 1.000625 0.314946 0.351218
v 1.000625 0.602208 0.063955
v -0.000625 0.685762 0.147509
v -0.000625 0.398499 0.434772
v -0.000625 0.602208 0.063955
v -0.000625 0.314946 0.351218
vn 1.0000 -0.0000 -0.0000
vn -0.0000 -0.7071 0.7071
vn -1.0000 -0.0000 -0.0000
vn -0.0000 0.7071 0.7071
vt 0.000000 0.875000
vt 0.328125 0.875000
vt 0.328125 1.000000
vt 0.000000 1.000000
vt 0.000000 0.437500
vt 1.000000 0.437500
vt 1.000000 0.562500
vt 0.000000 0.562500
vt 0.000000 0.000000
vt 0.406251 0.000000
vt 0.406251 1.000000
s 0
usemtl m_62d1e402-d7ce-e20e-1a2b-97a524bad1d0
f 27/42/15 28/43/15 26/44/15 25/45/15
f 32/46/16 27/47/16 25/48/16 30/49/16
f 31/42/17 32/43/17 30/44/17 29/45/17
f 30/45/18 25/50/18 26/51/18 29/52/18
o 3.004
v 0.286997 0.713383 1.000625
v 0.286997 0.713383 -0.000625
v 0.203444 0.629830 1.000625
v 0.203444 0.629830 -0.000625
v 0.000424 0.999957 -0.000625
v 0.000424 0.999957 1.000625
v -0.083130 0.916403 -0.000625
v -0.083130 0.916403 1.000625
vn -0.0000 -0.0000 -1.0000
vn 0.7071 -0.7071 -0.0000
vn -0.0000 -0.0000 1.0000
vn -0.7071 0.7071 -0.0000
vn 0.7071 0.7071 -0.0000
vn -0.7071 -0.7071 -0.0000
vt 0.000000 0.875000
vt 0.328125 0.875000
vt 0.328125 1.000000
vt 0.000000 1.000000
vt 0.000000 0.437500
vt 1.000000 0.437500
vt 1.000000 0.562500
vt 0.000000 0.562500
vt 1.000000 0.875000
vt 1.000000 1.000000
vt 0.405277 1.000000
vt 0.000000 0.000000
vt 0.405277 0.000000
vt 0.000000 0.594723
vt 1.000000 0.594723
s 0
usemtl m_62d1e402-d7ce-e20e-1a2b-97a524bad1d0
f 36/53/19 39/54/19 37/55/19 34/56/19
f 35/57/20 36/58/20 34/59/20 33/60/20
f 40/53/21 35/54/21 33/55/21 38/56/21
f 39/53/22 40/61/22 38/62/22 37/56/22
f 38/63/23 33/56/23 34/64/23 37/65/23
f 39/56/24 36/66/24 35/67/24 40/62/24
o 3r.002
v 1.000625 0.713383 0.286997
v 1.000625 0.999957 0.000424
v 1.000625 0.629830 0.203444
v 1.000625 0.916403 -0.083130
v -0.000625 0.999957 0.000424
v -0.000625 0.713383 0.286997
v -0.000625 0.916403 -0.083130
v -0.000625 0.629830 0.203444
vn -0.0000 0.7071 -0.7071
vn 1.0000 -0.0000 -0.0000
vn -0.0000 -0.7071 0.7071
vn -1.0000 -0.0000 -0.0000
vn -0.0000 0.7071 0.7071
vn -0.0000 -0.7071 -0.7071
vt 0.000000 0.875000
vt 1.000000 0.875000
vt 1.000000 1.000000
vt 0.000000 1.000000
vt 0.328125 0.875000
vt 0.328125 1.000000
vt 0.000000 0.437500
vt 1.000000 0.437500
vt 1.000000 0.562500
vt 0.000000 0.562500
vt 0.000000 0.000000
vt 0.405277 0.000000
vt 0.405277 1.000000
vt 0.000000 0.594723
vt 1.000000 0.594723
s 0
usemtl m_62d1e402-d7ce-e20e-1a2b-97a524bad1d0
f 44/68/25 47/69/25 45/70/25 42/71/25
f 43/68/26 44/72/26 42/73/26 41/71/26
f 48/74/27 43/75/27 41/76/27 46/77/27
f 47/68/28 48/72/28 46/73/28 45/71/28
f 46/71/29 41/78/29 42/79/29 45/80/29
f 47/70/30 44/71/30 43/81/30 48/82/30
o fill_1.004
v 0.499999 0.156250 1.000000
v 0.499999 0.156250 0.500000
v 0.499999 0.000000 1.000000
v 0.499999 0.000000 0.500000
v 0.249999 0.156250 0.500000
v 0.249999 0.156250 1.000000
v 0.249999 0.000000 0.500000
v 0.249999 0.000000 1.000000
vn -0.0000 -0.0000 -1.0000
vn 1.0000 -0.0000 -0.0000
vn -0.0000 -0.0000 1.0000
vn -1.0000 -0.0000 -0.0000
vn -0.0000 1.0000 -0.0000
vn -0.0000 -1.0000 -0.0000
vt 0.500000 0.000000
vt 0.750000 0.000000
vt 0.750000 0.156250
vt 0.500000 0.156250
vt 0.000000 0.843750
vt 1.000000 0.843750
vt 1.000000 1.000000
vt 0.000000 1.000000
vt 0.250000 0.000000
vt 0.250000 0.156250
vt 0.250000 1.000000
vt 0.000000 0.000000
vt 0.500000 1.000000
s 0
usemtl m_62d1e402-d7ce-e20e-1a2b-97a524bad1d0
f 52/83/31 55/84/31 53/85/31 50/86/31
f 51/87/32 52/88/32 50/89/32 49/90/32
f 56/91/33 51/83/33 49/86/33 54/92/33
f 55/87/34 56/88/34 54/89/34 53/90/34
f 54/93/35 49/90/35 50/94/35 53/91/35
f 55/91/36 52/83/36 51/95/36 56/93/36
o fill_1.005
v 1.000000 0.156250 0.499999
v 1.000000 0.156250 0.249999
v 1.000000 0.000000 0.499999
v 1.000000 0.000000 0.249999
v 0.250000 0.156250 0.249999
v 0.250000 0.156250 0.499999
v 0.250000 0.000000 0.249999
v 0.250000 0.000000 0.499999
vn -0.0000 -0.0000 -1.0000
vn 1.0000 -0.0000 -0.0000
vn -0.0000 -0.0000 1.0000
vn -1.0000 -0.0000 -0.0000
vn -0.0000 1.0000 -0.0000
vn -0.0000 -1.0000 -0.0000
vt 0.000000 0.843750
vt 1.000000 0.843750
vt 1.000000 1.000000
vt 0.000000 1.000000
vt 0.500000 0.000000
vt 0.750000 0.000000
vt 0.750000 0.156250
vt 0.500000 0.156250
vt 0.250000 0.000000
vt 0.250000 0.156250
vt 0.000000 0.000000
vt 0.250000 1.000000
vt 0.500000 1.000000
s 0
usemtl m_62d1e402-d7ce-e20e-1a2b-97a524bad1d0
f 60/96/37 63/97/37 61/98/37 58/99/37
f 59/100/38 60/101/38 58/102/38 57/103/38
f 64/96/39 59/97/39 57/98/39 62/99/39
f 63/104/40 64/100/40 62/103/40 61/105/40
f 62/99/41 57/106/41 58/104/41 61/107/41
f 63/107/42 60/104/42 59/100/42 64/108/42
o fill_2.003
v 0.343749 0.468750 1.000000
v 0.343749 0.468750 0.250000
v 0.343749 0.156250 1.000000
v 0.343749 0.156250 0.250000
v 0.249999 0.468750 0.250000
v 0.249999 0.468750 1.000000
v 0.249999 0.156250 0.250000
v 0.249999 0.156250 1.000000
vn -0.0000 -0.0000 -1.0000
vn 1.0000 -0.0000 -0.0000
vn -0.0000 -0.0000 1.0000
vn -1.0000 -0.0000 -0.0000
vn -0.0000 1.0000 -0.0000
vn -0.0000 -1.0000 -0.0000
vt 0.656250 0.156250
vt 0.750000 0.156250
vt 0.750000 0.468750
vt 0.656250 0.468750
vt 0.000000 0.687500
vt 1.000000 0.687500
vt 1.000000 1.000000
vt 0.000000 1.000000
vt 0.250000 0.156250
vt 0.343750 0.156250
vt 0.343750 0.468750
vt 0.250000 0.468750
vt 0.093750 1.000000
vt 0.000000 0.000000
vt 0.093750 0.000000
vt 0.250000 1.000000
vt 0.343750 1.000000
vt 0.343750 0.000000
vt 0.250000 0.000000
s 0
usemtl m_62d1e402-d7ce-e20e-1a2b-97a524bad1d0
f 68/109/43 71/110/43 69/111/43 66/112/43
f 67/113/44 68/114/44 66/115/44 65/116/44
f 72/117/45 67/118/45 65/119/45 70/120/45
f 71/113/46 72/114/46 70/115/46 69/116/46
f 70/121/47 65/116/47 66/122/47 69/123/47
f 71/124/48 68/125/48 67/126/48 72/127/48
o fill_2.004
v 1.000000 0.468750 0.343749
v 1.000000 0.468750 0.249999
v 1.000000 0.156250 0.343749
v 1.000000 0.156250 0.249999
v 0.000000 0.468750 0.249999
v 0.000000 0.468750 0.343749
v 0.000000 0.156250 0.249999
v 0.000000 0.156250 0.343749
vn -0.0000 -0.0000 -1.0000
vn 1.0000 -0.0000 -0.0000
vn -0.0000 -0.0000 1.0000
vn -1.0000 -0.0000 -0.0000
vn -0.0000 1.0000 -0.0000
vn -0.0000 -1.0000 -0.0000
vt 0.000000 0.687500
vt 1.000000 0.687500
vt 1.000000 1.000000
vt 0.000000 1.000000
vt 0.656250 0.156250
vt 0.750000 0.156250
vt 0.750000 0.468750
vt 0.656250 0.468750
vt 0.250000 0.156250
vt 0.343750 0.156250
vt 0.343750 0.468750
vt 0.250000 0.468750
vt 0.000000 0.000000
vt 0.093750 0.000000
vt 0.093750 1.000000
vt 0.250000 0.000000
vt 0.250000 1.000000
vt 0.343750 1.000000
vt 0.343750 0.000000
s 0
usemtl m_62d1e402-d7ce-e20e-1a2b-97a524bad1d0
f 76/128/49 79/129/49 77/130/49 74/131/49
f 75/132/50 76/133/50 74/134/50 73/135/50
f 80/128/51 75/129/51 73/130/51 78/131/51
f 79/136/52 80/137/52 78/138/52 77/139/52
f 78/131/53 73/140/53 74/141/53 77/142/53
f 79/143/54 76/144/54 75/145/54 80/146/54
o fill_3.004
v 0.249999 0.562500 1.000000
v 0.249999 0.562500 -0.000000
v 0.249999 0.000000 1.000000
v 0.249999 0.000000 0.000000
v 0.000000 0.562500 -0.000000
v 0.000000 0.562500 1.000000
v 0.000000 0.000000 0.000000
v 0.000000 0.000000 1.000000
vn -0.0000 -0.0000 -1.0000
vn 1.0000 -0.0000 -0.0000
vn -0.0000 -0.0000 1.0000
vn -1.0000 -0.0000 -0.0000
vn -0.0000 1.0000 -0.0000
vn -0.0000 -1.0000 -0.0000
vt 0.750001 0.000000
vt 1.000000 0.000000
vt 1.000000 0.562500
vt 0.750001 0.562500
vt 0.000000 0.437500
vt 1.000000 0.437500
vt 1.000000 1.000000
vt 0.000000 1.000000
vt 0.000000 0.000000
vt 0.249999 0.000000
vt 0.249999 0.562500
vt 0.000000 0.562500
vt 0.249999 1.000000
s 0
usemtl m_62d1e402-d7ce-e20e-1a2b-97a524bad1d0
f 84/147/55 87/148/55 85/149/55 82/150/55
f 83/151/56 84/152/56 82/153/56 81/154/56
f 88/155/57 83/156/57 81/157/57 86/158/57
f 87/155/58 88/148/58 86/149/58 85/158/58
f 86/159/59 81/154/59 82/155/59 85/156/59
f 87/155/60 84/156/60 83/159/60 88/154/60
o fill_3.005
v 1.000000 0.562500 0.249999
v 1.000000 0.562500 -0.000000
v 1.000000 0.000000 0.249999
v 1.000000 0.000000 0.000000
v 0.250000 0.562500 -0.000000
v 0.250000 0.562500 0.249999
v 0.250000 0.000000 0.000000
v 0.250000 0.000000 0.249999
vn -0.0000 -0.0000 -1.0000
vn 1.0000 -0.0000 -0.0000
vn -0.0000 -0.0000 1.0000
vn -1.0000 -0.0000 -0.0000
vn -0.0000 1.0000 -0.0000
vn -0.0000 -1.0000 -0.0000
vt 0.000000 0.000000
vt 0.750000 0.000000
vt 0.750000 0.562500
vt 0.000000 0.562500
vt 0.750001 0.000000
vt 1.000000 0.000000
vt 1.000000 0.562500
vt 0.750001 0.562500
vt 0.000000 0.437500
vt 1.000000 0.437500
vt 1.000000 1.000000
vt 0.000000 1.000000
vt 0.249999 0.000000
vt 0.249999 0.562500
vt 0.249999 1.000000
s 0
usemtl m_62d1e402-d7ce-e20e-1a2b-97a524bad1d0
f 92/160/61 95/161/61 93/162/61 90/163/61
f 91/164/62 92/165/62 90/166/62 89/167/62
f 96/168/63 91/169/63 89/170/63 94/171/63
f 95/160/64 96/172/64 94/173/64 93/163/64
f 94/171/65 89/160/65 90/172/65 93/174/65
f 95/171/66 92/160/66 91/172/66 96/174/66
o fill_4.005
v 0.171874 0.765625 1.000000
v 0.171874 0.765625 -0.000000
v 0.171874 0.562500 1.000000
v 0.171874 0.562500 -0.000000
v 0.000000 0.765625 -0.000000
v 0.000000 0.765625 1.000000
v 0.000000 0.562500 -0.000000
v 0.000000 0.562500 1.000000
vn -0.0000 -0.0000 -1.0000
vn 1.0000 -0.0000 -0.0000
vn -0.0000 -0.0000 1.0000
vn -1.0000 -0.0000 -0.0000
vn -0.0000 1.0000 -0.0000
vn -0.0000 -1.0000 -0.0000
vt 0.828126 0.562500
vt 1.000000 0.562500
vt 1.000000 0.765625
vt 0.828126 0.765625
vt 0.000000 0.796875
vt 1.000000 0.796875
vt 1.000000 1.000000
vt 0.000000 1.000000
vt 0.000000 0.562500
vt 0.171874 0.562500
vt 0.171874 0.765625
vt 0.000000 0.765625
vt 0.171874 1.000000
vt 0.000000 0.000000
vt 0.171874 0.000000
s 0
usemtl m_62d1e402-d7ce-e20e-1a2b-97a524bad1d0
f 100/175/67 103/176/67 101/177/67 98/178/67
f 99/179/68 100/180/68 98/181/68 97/182/68
f 104/183/69 99/184/69 97/185/69 102/186/69
f 103/183/70 104/176/70 102/177/70 101/186/70
f 102/187/71 97/182/71 98/188/71 101/189/71
f 103/182/72 100/187/72 99/189/72 104/188/72
o fill_4.006
v 1.000000 0.765625 0.171874
v 1.000000 0.765625 -0.000000
v 1.000000 0.562500 0.171874
v 1.000000 0.562500 -0.000000
v 0.171875 0.765625 -0.000000
v 0.171875 0.765625 0.171874
v 0.171875 0.562500 -0.000000
v 0.171875 0.562500 0.171874
vn -0.0000 -0.0000 -1.0000
vn 1.0000 -0.0000 -0.0000
vn -0.0000 -0.0000 1.0000
vn -1.0000 -0.0000 -0.0000
vn -0.0000 1.0000 -0.0000
vn -0.0000 -1.0000 -0.0000
vt 0.000000 0.562500
vt 0.828125 0.562500
vt 0.828125 0.765625
vt 0.000000 0.765625
vt 0.828126 0.562500
vt 1.000000 0.562500
vt 1.000000 0.765625
vt 0.828126 0.765625
vt 0.000000 0.796875
vt 1.000000 0.796875
vt 1.000000 1.000000
vt 0.000000 1.000000
vt 0.171874 0.562500
vt 0.171874 0.765625
vt 0.000000 0.000000
vt 0.171874 0.000000
vt 0.171874 1.000000
s 0
usemtl m_62d1e402-d7ce-e20e-1a2b-97a524bad1d0
f 108/190/73 111/191/73 109/192/73 106/193/73
f 107/194/74 108/195/74 106/196/74 105/197/74
f 112/198/75 107/199/75 105/200/75 110/201/75
f 111/190/76 112/202/76 110/203/76 109/193/76
f 110/201/77 105/204/77 106/205/77 109/206/77
f 111/204/78 108/201/78 107/206/78 112/205/78
o fill_5.004
v 0.093749 0.890625 1.000000
v 0.093749 0.890625 -0.000000
v 0.093749 0.765625 1.000000
v 0.093749 0.765625 -0.000000
v 0.000000 0.890625 -0.000000
v 0.000000 0.890625 1.000000
v 0.000000 0.765625 -0.000000
v 0.000000 0.765625 1.000000
vn -0.0000 -0.0000 -1.0000
vn 1.0000 -0.0000 -0.0000
vn -0.0000 -0.0000 1.0000
vn -1.0000 -0.0000 -0.0000
vn -0.0000 1.0000 -0.0000
vn -0.0000 -1.0000 -0.0000
vt 0.906251 0.765625
vt 1.000000 0.765625
vt 1.000000 0.890625
vt 0.906251 0.890625
vt 0.000000 0.875000
vt 1.000000 0.875000
vt 1.000000 1.000000
vt 0.000000 1.000000
vt 0.000000 0.765625
vt 0.093749 0.765625
vt 0.093749 0.890625
vt 0.000000 0.890625
vt 0.093749 1.000000
vt 0.000000 0.000000
vt 0.093749 0.000000
s 0
usemtl m_62d1e402-d7ce-e20e-1a2b-97a524bad1d0
f 116/207/79 119/208/79 117/209/79 114/210/79
f 115/211/80 116/212/80 114/213/80 113/214/80
f 120/215/81 115/216/81 113/217/81 118/218/81
f 119/215/82 120/208/82 118/209/82 117/218/82
f 118/219/83 113/214/83 114/220/83 117/221/83
f 119/214/84 116/219/84 115/221/84 120/220/84
o fill_5.005
v 1.000000 0.890625 0.093749
v 1.000000 0.890625 -0.000000
v 1.000000 0.765625 0.093749
v 1.000000 0.765625 -0.000000
v 0.000000 0.890625 -0.000000
v 0.000000 0.890625 0.093749
v 0.000000 0.765625 -0.000000
v 0.000000 0.765625 0.093749
vn -0.0000 -0.0000 -1.0000
vn 1.0000 -0.0000 -0.0000
vn -0.0000 -0.0000 1.0000
vn -1.0000 -0.0000 -0.0000
vn -0.0000 1.0000 -0.0000
vn -0.0000 -1.0000 -0.0000
vt 0.000000 0.765625
vt 1.000000 0.765625
vt 1.000000 0.890625
vt 0.000000 0.890625
vt 0.906251 0.765625
vt 0.906251 0.890625
vt 0.000000 0.875000
vt 1.000000 0.875000
vt 1.000000 1.000000
vt 0.000000 1.000000
vt 0.093749 0.765625
vt 0.093749 0.890625
vt 0.000000 0.000000
vt 0.093749 0.000000
vt 0.093749 1.000000
s 0
usemtl m_62d1e402-d7ce-e20e-1a2b-97a524bad1d0
f 124/222/85 127/223/85 125/224/85 122/225/85
f 123/226/86 124/223/86 122/224/86 121/227/86
f 128/228/87 123/229/87 121/230/87 126/231/87
f 127/222/88 128/232/88 126/233/88 125/225/88
f 126/231/89 121/234/89 122/235/89 125/236/89
f 127/234/90 124/231/90 123/236/90 128/235/90
